<?xml version="1.0" standalone="no"?>
<!DOCTYPE svg PUBLIC "-//W3C//DTD SVG 1.1//EN" "http://www.w3.org/Graphics/SVG/1.1/DTD/svg11.dtd" >
<!--
2013-9-30: Created.
-->
<svg>
<metadata>
Created by iconfont
</metadata>
<defs>

<font id="iconfont" horiz-adv-x="1024" >
  <font-face
    font-family="iconfont"
    font-weight="500"
    font-stretch="normal"
    units-per-em="1024"
    ascent="896"
    descent="-128"
  />
    <missing-glyph />
    
    <glyph glyph-name="liwu" unicode="&#58892;" d="M858.304512 473.838336 648.942592 473.838336c43.041792 28.939264 83.776512 66.617344 88.58624 107.684864 2.358272 20.025344-2.22208 49.388544-37.525504 75.53024-19.586048 14.51008-39.45984 21.844992-59.014144 21.844992-62.317568 0-97.565696-71.615488-116.614144-135.614464-22.769664 81.58208-66.72384 186.505216-142.217216 186.505216-22.018048 0-43.97056-8.94976-65.270784-26.602496-42.048512-34.879488-46.189568-71.092224-42.242048-95.343616 8.790016-54.243328 67.00032-100.873216 123.082752-134.00576L166.32832 473.837312c-16.954368 0-30.68416-13.73696-30.68416-30.691328l0-167.871488c0-16.951296 13.729792-30.68928 30.68416-30.68928l7.986176 0 0-367.096832c0-16.946176 13.737984-30.683136 30.686208-30.683136l614.596608 0c16.96768 0 30.722048 13.73696 30.722048 30.683136L850.31936 244.587264l7.986176 0c16.948224 0 30.701568 13.737984 30.701568 30.68928L889.007104 443.148032C889.00608 460.101376 875.252736 473.838336 858.304512 473.838336zM827.578368 308.798208 570.91072 308.798208l0 103.6288 256.667648 0L827.578368 308.798208zM640.98816 617.48608c6.013952 0 13.805568-3.38944 22.475776-9.816064 14.084096-10.416128 13.297664-16.847872 13.089792-18.97984-2.622464-22.36928-47.429632-57.603072-99.682304-86.647808C592.216064 563.977984 617.32864 617.48608 640.98816 617.48608zM335.25248 617.700096c-0.80384 5.035008-2.97472 18.453504 20.850688 38.23616 6.863872 5.66272 16.968704 12.443648 26.053632 12.443648 33.795072 0 68.554752-83.185664 88.813568-164.063232C407.14752 536.19072 341.143552 581.416704 335.25248 617.700096zM457.058304 412.425984l0-103.6288L197.035008 308.797184l0 103.6288L457.058304 412.425984zM235.727872 271.956736l221.330432 0 0-363.743232L235.727872-91.786496 235.727872 271.956736zM570.91072-91.786496 570.91072 271.956736l217.97376 0 0-363.743232L570.91072-91.786496z"  horiz-adv-x="1024" />

    
    <glyph glyph-name="yijiuhuanxinjiage" unicode="&#58942;" d="M512.006015 812C229.222636 812 0 582.777364 0 300.006027c0-282.759295 229.222636-512.006015 512.006015-512.006015 282.759295 0 512.006015 229.234678 512.006015 512.006015C1023.999988 582.777364 794.76531 812 512.006015 812zM666.739723 48.073058c-26.69608-31.56086-66.722138-51.080186-120.102258-58.509812l0-58.509812-71.586918 0 0 60.448499c-41.579416 4.094121-77.896682 20.085278-108.939756 47.925304-31.055116 27.827984-46.576653 76.39149-46.576653 145.678475l0 30.404873 155.516408 0 0-38.099413c0-41.84433 1.601524-67.805877 4.804572-77.944848 3.203048-10.138971 10.969837-15.220499 23.288326-15.220499 10.5243 0 18.339256 3.528169 23.480991 10.584508 5.129693 7.056339 7.69454 17.520432 7.69454 31.368195 0 34.896365-2.43239 59.858464-7.297169 74.886298-4.876821 15.003751-21.566387 31.356154-50.044614 49.057208-47.467726 29.778713-79.739036 51.646138-96.80189 65.6384-17.074895 13.968179-31.825774 33.68017-44.27672 59.075765-12.438904 25.395595-18.664377 54.150777-18.664377 86.229423 0 46.432154 13.149355 82.881877 39.448065 109.313043s65.758816 42.735403 118.368277 48.888627L475.050548 668.946579l71.586918 0 0-49.659285c47.97347-6.153224 83.917449-22.264796 107.771727-48.310633 23.86632-26.045837 35.79948-62.02594 35.79948-107.964392 0-6.418137-0.505744-16.17178-1.529275-29.260927L533.16299 433.751342 533.16299 459.544307c0 27.454697-1.794189 45.420665-5.382566 53.897905-3.600419 8.465198-11.294959 12.703818-23.095662 12.703818-9.50077 0-16.617317-3.660626-21.361681-10.969837s-7.116546-18.29109-7.116546-32.909512c0-24.372064 4.86478-41.434918 14.630463-51.18856 9.488729-9.765684 37.44917-28.7311 83.905407-56.980538 39.520314-23.842237 66.469266-42.145368 80.834816-54.849186s26.491374-30.669786 36.377473-53.885863c9.874058-23.24016 14.811087-52.163924 14.811087-86.807417C706.765782 123.127938 693.423762 79.633918 666.739723 48.073058z"  horiz-adv-x="1025" />

    
    <glyph glyph-name="weixin" unicode="&#58941;" d="M678.735977 451.680585c10.842952 0 21.50478-0.822738 32.230052-1.99954-28.871561 134.447085-172.570357 234.313583-336.657506 234.313583-183.411263 0-333.650009-124.963083-333.650009-283.746436 0-91.617627 49.962925-166.856215 133.508713-225.300302l-33.349549-100.339266 116.655883 58.449203c41.714054-8.190543 75.18026-16.676821 116.834962-16.676821 10.487865 0 20.857027 0.471744 31.109532 1.236154-6.480598 22.331611-10.310833 45.665039-10.310833 69.996191C395.16555 333.377178 520.308735 451.680585 678.735977 451.680585L678.735977 451.680585zM499.394403 542.122433c25.216311 0 41.771359-16.556071 41.771359-41.655725 0-24.978904-16.556071-41.714054-41.771359-41.714054-24.926716 0-50.022277 16.73515-50.022277 41.714054C449.372126 525.625714 474.409358 542.122433 499.394403 542.122433L499.394403 542.122433zM265.901511 458.752654c-25.041326 0-50.259684 16.73515-50.259684 41.714054 0 25.099654 25.218358 41.655725 50.259684 41.655725 25.038256 0 41.656749-16.496719 41.656749-41.655725C307.55826 475.487803 290.938744 458.752654 265.901511 458.752654L265.901511 458.752654zM983.33944 191.620617c0 133.391033-133.50769 242.094804-283.45377 242.094804-158.77926 0-283.746436-108.763123-283.746436-242.094804 0-133.741004 125.025505-242.09071 283.746436-242.09071 33.232892 0 66.75538 8.306176 100.104929 16.671705l91.496877-50.196239-25.100678 83.424015C933.377538 49.747399 983.33944 116.382029 983.33944 191.620617L983.33944 191.620617zM607.85872 233.393c-16.555048 0-33.348526 16.496719-33.348526 33.349549 0 16.612353 16.793478 33.343409 33.348526 33.343409 25.335015 0 41.772382-16.731056 41.772382-33.343409C649.631102 249.889719 633.192711 233.393 607.85872 233.393L607.85872 233.393zM791.38664 233.393c-16.437367 0-33.168424 16.496719-33.168424 33.349549 0 16.612353 16.671705 33.343409 33.168424 33.343409 25.100678 0 41.772382-16.731056 41.772382-33.343409C833.160045 249.889719 816.488341 233.393 791.38664 233.393L791.38664 233.393zM791.38664 233.393"  horiz-adv-x="1024" />

    
    <glyph glyph-name="more2" unicode="&#58928;" d="M512.32 883.36c-282.591 0-511.68-229.089-511.68-511.68 0-282.589 229.089-511.68 511.68-511.68 282.589 0 511.68 229.091 511.68 511.68 0 282.591-229.091 511.68-511.68 511.68zM682.813 368.532c-0.1-1.066-0.367-2.099-0.567-3.165-0.2-1.034-0.349-2.083-0.666-3.115-0.284-0.967-0.7-1.883-1.099-2.832-0.434-1.066-0.816-2.149-1.365-3.181-0.434-0.831-1.017-1.616-1.532-2.415-0.7-1.066-1.35-2.115-2.164-3.098-0.133-0.184-0.217-0.366-0.367-0.533-0.466-0.55-1.032-0.933-1.531-1.449-0.768-0.782-1.433-1.631-2.265-2.349l-274.478-205.588c-6.28-5.313-13.966-7.912-21.594-7.912-9.461 0-18.872 3.98-25.451 11.693-11.95 13.992-10.235 34.929 3.798 46.787l214.739 155.103 0.949 0.799c6.546 6.062 10.661 14.707 10.661 24.301 0 10.061-4.514 19.055-11.61 25.152l0 0.166-214.741 155.103c-14.033 11.859-15.748 32.813-3.798 46.787 11.885 13.941 32.962 15.674 47.045 3.781l274.478-205.588c0.733-0.617 1.266-1.35 1.933-1.998 0.6-0.617 1.3-1.117 1.865-1.782 0.15-0.184 0.234-0.367 0.367-0.533 0.816-0.999 1.481-2.065 2.164-3.115 0.516-0.8 1.099-1.582 1.532-2.415 0.55-1.032 0.933-2.099 1.365-3.181 0.399-0.933 0.833-1.865 1.099-2.832 0.316-1.032 0.466-2.065 0.666-3.115s0.467-2.083 0.567-3.148c0.1-1.066 0.05-2.116 0.05-3.165 0-1.063 0.05-2.113-0.05-3.162z"  horiz-adv-x="1024" />

    
    <glyph glyph-name="shijian" unicode="&#58911;" d="M512.124531-128c-136.770535 0-265.286449 53.228075-362.064767 150.006393-96.778318 96.778318-150.006393 225.294232-150.006393 362.064767 0 136.770535 53.228075 265.286449 150.006393 362.064767C246.695761 842.771925 375.353996 896 512.124531 896c136.770535 0 265.286449-53.228075 362.064767-150.006393 199.676442-199.676442 199.676442-524.453092 0-724.129534C777.41098-74.771925 648.895066-128 512.124531-128L512.124531-128zM512.124531 804.060598c-112.291313 0-217.751216-43.692564-297.166366-123.107714-79.415149-79.415149-123.107714-184.875052-123.107714-297.024044 0-112.291313 43.692564-217.751216 123.107714-297.166366C294.373315 7.489646 399.833218-36.202919 512.124531-36.202919c112.291313 0 217.751216 43.692564 297.166366 123.107714 163.811536 163.811536 163.811536 430.378874 0 594.19041C729.875747 760.368033 624.273523 804.060598 512.124531 804.060598L512.124531 804.060598zM512.124531 804.060598M512.693815 318.03419c-25.333148 0-45.969701 20.494232-45.969701 45.969701l0 255.750938c0 25.333148 20.494232 45.969701 45.969701 45.969701 25.333148 0 45.969701-20.494232 45.969701-45.969701L558.663516 363.861571C558.521195 338.528423 538.026963 318.03419 512.693815 318.03419L512.693815 318.03419zM512.693815 318.03419M376.492564 171.728145c-11.812648 0-23.482974 4.411953-32.449201 13.378179-17.932453 17.932453-17.932453 46.965949 0 64.898402L480.244614 386.490618C498.034746 404.423072 527.210563 404.423072 545.143016 386.490618c17.932453-17.932453 17.932453-46.965949 0-64.898402l-136.201251-136.201251C399.975539 176.282418 388.162891 171.728145 376.492564 171.728145L376.492564 171.728145zM376.492564 171.728145"  horiz-adv-x="1024" />

    
    <glyph glyph-name="huafeichongzhi" unicode="&#58895;" d="M827.20338 766.770753c0 37.0795-37.923728 84.104513-87.301322 84.104513L316.449767 850.875267c-58.413388 0-89.032756-52.842509-89.032756-84.4596l0-733.201961c0-41.052998 44.627407-82.660628 85.835947-82.660628l427.715385 0c80.905658 0 86.258573 85.300758 86.258573 85.300758S828.134589 603.269959 827.20338 766.770753L827.20338 766.770753zM527.510764-16.097374c-20.714787 0-37.523615 16.784268-37.523615 37.523615 0 20.714787 16.808828 37.521568 37.523615 37.521568s37.522592-16.806781 37.522592-37.521568C565.033355 0.686894 548.225551-16.097374 527.510764-16.097374L527.510764-16.097374zM763.791142 78.41928 291.227316 78.41928 291.227316 754.914728l472.564849 0L763.791142 78.41928 763.791142 78.41928zM689.079556 577.248306l-32.304753 31.195489L530.574542 477.646843 398.244678 614.79341l-32.304753-31.194466L475.377406 470.186941l-92.718705 0 0-32.770358L502.198262 437.416584l0-63.634296-119.540583-0.13303 0-31.749098L502.198262 341.90016l0-123.802654 50.621934 0L552.820196 341.899136l119.540583-0.022513-0.044002 31.773657L552.820196 373.650281 552.820196 437.41556l119.496581 0 0 32.769334L585.792145 470.184895 689.079556 577.248306z"  horiz-adv-x="1024" />

    
    <glyph glyph-name="xiayige" unicode="&#59020;" d="M715.137449 383.982957c0-6.486198-2.543272-13.091878-7.493266-17.939458l-253.303094-253.456715c-10.002399-9.951193-26.149619-9.951193-36.049605 0-9.951193 9.951193-9.951193 26.047205 0 35.947191l235.346568 235.431912L418.291485 619.3978c-9.951193 9.899987-9.951193 26.047205 0 35.998398 10.002399 9.899987 26.047205 9.899987 36.049605 0l253.303094-253.405508C712.594177 396.98949 715.137449 390.486223 715.137449 383.982957zM1024.085294 383.982957c0-282.337364-229.696749-512.085319-512.051181-511.982905C229.747955-128.102363 0 101.645593 0 383.982957 0 666.354458 229.747955 896 512.034112 896 794.388545 896 1024.085294 666.354458 1024.085294 383.982957zM50.933721 383.982957c0-254.276024 206.841436-461.083321 461.10039-461.083321 254.293093 0 461.151597 206.790229 461.151597 461.083321 0 254.310162-206.841436 461.066253-461.151597 461.066253C257.792226 845.04921 50.933721 638.293119 50.933721 383.982957z"  horiz-adv-x="1025" />

    
    <glyph glyph-name="sevenday" unicode="&#58893;" d="M953.235 584c0 0-0.070-0.19-0.195-0.542l-0.077 0.542-73.085-151.585 77.527 8.919c5.582-64.583-3.538-130.081-27.468-192.11-20.96-54.332-51.929-102.927-92.044-144.437-38.753-40.099-84.374-71.943-135.594-94.646-51.221-22.702-105.453-35.118-161.189-36.899-57.697-1.845-114.5 7.848-168.832 28.807-54.332 20.96-102.928 51.929-144.438 92.044-40.098 38.753-71.943 84.374-94.646 135.594-22.702 51.221-35.118 105.453-36.899 161.189-1.844 57.696 7.848 114.5 28.808 168.832 20.96 54.332 51.929 102.928 92.043 144.438 38.753 40.098 84.375 71.943 135.594 94.646 51.221 22.702 105.454 35.118 161.189 36.899 57.696 1.844 114.5-7.848 168.832-28.808 49.39-19.054 94.205-46.496 133.2-81.567l20.529 22.826c-41.785 37.579-89.789 66.979-142.68 87.383-58.186 22.447-119.037 32.827-180.862 30.85-59.707-1.909-117.795-15.204-172.648-39.517-54.853-24.313-103.715-58.422-145.23-101.377-42.987-44.479-76.164-96.536-98.611-154.722-22.445-58.187-32.825-119.038-30.848-180.863 1.908-59.708 15.204-117.795 39.517-172.648 24.313-54.853 58.422-103.716 101.377-145.231 44.479-42.987 96.536-76.164 154.722-98.611 58.186-22.447 119.037-32.827 180.862-30.85 59.708 1.908 117.795 15.204 172.648 39.518 54.853 24.313 103.716 58.421 145.23 101.377 42.987 44.479 76.164 96.536 98.611 154.722 43.292 112.219 41.394 235.036-5.344 345.826zM521.193 200.475c10.339 119.021 57.553 232.886 141.672 341.565v60.162h-294.988v-67.925h205.715c-77.628-104.799-124.205-216.086-139.731-333.802h87.333z"  horiz-adv-x="1024" />

    
    <glyph glyph-name="weibo" unicode="&#58918;" d="M737.971591 423.219233c-12.96222 3.703345-22.221094 5.554506-14.81338 22.221094 14.813381 35.18536 14.813381 66.667376 0 88.890517-29.630854 42.593074-109.259426 40.74089-200.001104 1.851161 0 0-29.630854-12.96222-22.22314 9.258874 14.815427 44.446281 12.964266 81.482803-9.258875 103.705943-50.000787 49.999764-181.483354-1.854231-294.446125-114.815978C112.042819 449.145719 63.895239 360.255203 63.895239 282.476769c0-148.149155 190.740182-238.890832 375.927905-238.890832 244.445338 0 405.556713 142.593626 407.40992 257.409604 0.001023 68.518536-57.407478 105.557104-109.261473 122.223692zM441.675328 97.289046c-148.149155-14.813381-275.927353 51.853995-285.186228 150.001339-11.112082 96.297206 101.851713 187.038884 250.001891 201.854311 148.147108 14.813381 275.927353-51.853995 285.186228-150.001339 11.110035-96.297206-101.852736-187.038884-250.001891-201.854311z m14.815427 277.781584c-70.371744 18.517749-150.001339-16.666588-181.483354-79.630618-31.482015-64.816215 0-135.185912 70.369697-157.409053 74.075089-24.074302 161.113421 12.963243 190.742229 81.481779 29.630854 68.518536-7.407714 137.039119-79.628572 155.557892z m-53.705156-162.965605C387.970172 189.884954 356.490204 178.771849 334.267063 189.884954c-22.223141 11.110035-29.630854 37.036521-14.815427 61.110823 14.815427 22.223141 44.446281 31.482015 66.667375 22.223141 22.222117-11.113105 29.629831-37.039591 16.666588-61.113893z m48.148604 61.113893c-5.556553-9.260921-16.666588-12.964266-25.925463-9.260922-9.258874 3.704368-12.964266 12.963243-7.407713 22.223141 3.702322 9.258874 14.815427 12.963243 24.074301 9.258875 9.258874-3.703345 12.961196-12.963243 9.258875-22.221094z m325.92814 242.593153c5.555529 18.518772 1.851161 38.887682-11.110035 55.555294-14.815427 14.815427-35.18536 22.223141-53.705156 16.666588-16.666588-3.703345-31.479969 7.407714-35.18536 22.223141-3.702322 16.667611 7.407714 31.482015 22.22314 35.18536 38.887682 7.407714 81.481779-3.703345 109.259427-35.18536 27.777647-31.482015 37.035498-74.075089 24.074301-112.964818-5.556553-14.813381-22.223141-24.072255-37.038568-18.518772-14.813381 3.705392-24.074302 20.37198-18.517749 37.038567z m172.223457-55.556316c-5.556553-18.518772-25.925463-27.777647-42.593074-22.223141-18.519796 5.556553-27.77867 25.925463-22.223141 42.593074 18.517749 55.556317 7.407714 118.520347-35.18536 164.815743-42.593074 46.297442-103.70492 64.815191-161.113421 51.851948-18.517749-3.703345-37.036521 7.407714-40.738843 25.927509-3.704368 18.517749 7.405667 37.035498 25.925462 40.738843 79.628572 16.667611 166.667927-7.405667 225.927589-72.220858s74.076112-153.705708 50.000788-231.483118z"  horiz-adv-x="1024" />

    
    <glyph glyph-name="next" unicode="&#58896;" d="M512.2810742187498 833.4378515625001c-248.3707684570312-1.5631940186722204e-13-449.7189257812498-201.34815732421902-449.7189257812497-449.7189257812502 1.7053025658242404e-13-248.36964433593752 201.34815732421902-449.7189257812498 449.7189257812502-449.7189257812497 248.36964433593752 1.7053025658242404e-13 449.7189257812498 201.34928144531273 449.7189257812497 449.7189257812502C961.9999999999998 632.0896942382816 760.6507185546873 833.4378515625001 512.2810742187498 833.4378515625001zM662.1285447265625 380.95202958984373c-0.08769550781249935-0.9365396484374999-0.3226737304687487-1.8449718750000001-0.49806386718749796-2.7815115234375005-0.17539013671874937-0.9084322265625-0.30693339843749856-1.8303556640625-0.5857584960937481-2.73766376953125-0.24959443359374933-0.8499691406250001-0.6149909179687488-1.6549655273437502-0.9657711914062481-2.4891943359374995-0.3811368164062495-0.9365396484375001-0.717301757812499-1.8888196289062504-1.1996252929687472-2.796127734375-0.3811368164062495-0.7307929687500003-0.8938160156249997-1.4199873046875-1.3469080078124986-2.122673730468751-0.6149909179687495-0.9365396484375006-1.1861340820312483-1.8584630859375006-1.9023108398437487-2.723048437500002-0.11692705078124987-0.16189892578125012-0.19113046874999995-0.32154873046875-0.32267373046874975-0.4688323242187502-0.40924423828124973-0.4834476562500002-0.9073081054687495-0.8196125976562504-1.345783886718749-1.2738287109375006-0.6745781249999995-0.6869460937500003-1.2592133789062492-1.433479394531251-1.9911304687499984-2.0642097656250016l-241.24047451171862-180.6925675781251c-5.519175292968746-4.669207031250004-12.275078027343746-6.953778808593759-18.979263281249988-6.95377880859376-8.315303027343749-5.329070518200751e-15-16.58675830078125 3.4976891601562397-22.369019238281254 10.277201953124983-10.50318544921876 12.297563964843745-8.995502636718768 30.69893847656249 3.3380384765624633 41.121174023437504l187.5800126953124 135.3406623046876 1.1557775390624991 0.9803874023437509 0.8342288085937495 0.7026855468750004c5.753029394531246 5.328044824218754 9.369893847656241 12.926046093750006 9.369893847656236 21.358276171875005-1.7763568394002505e-15 8.8425984375-3.967645605468763 16.747533105468747-10.20412265625001 22.105933593749988l-9.71445146547012e-17 0.14615859375-188.73691435546874 136.32104970703125c-12.333541113281255 10.423360546874989-13.841223925781264 28.83935039062499-3.338038476562531 41.121174023437504 10.445846484374991 12.252592089843755 28.970892773437487 13.776015234375016 41.34828251953125 3.3234231445312687l241.24047451171884-180.69256757812488c0.6442224609375-0.54191162109375 1.113053906250001-1.186134082031249 1.698813281250001-1.7561522460937493 0.5272954101562499-0.54191162109375 1.1422863281250006-0.9815115234374993 1.6392251953125005-1.566145898437499 0.1315423828125001-0.16189892578124992 0.2057466796875002-0.3226737304687498 0.3226737304687503-0.46883232421874976 0.7173017578125006-0.8780765624999998 1.301936132812501-1.8146162109374993 1.9023108398437523-2.737663769531249 0.4530919921875001-0.7026855468749997 0.9657711914062502-1.3907557617187498 1.3469080078125006-2.1226737304687493 0.48344765625000063-0.9073081054687497 0.8196125976562508-1.8449718749999993 1.1996252929687516-2.796127734374998 0.3507811523437505-0.8196125976562497 0.7319179687500006-1.6392251953124992 0.9657711914062515-2.4891943359374995 0.2777018554687505-0.9073081054687496 0.40924423828125134-1.814616210937499 0.5857584960937519-2.73766376953125s0.41036835937500105-1.830355664062499 0.4980638671875013-2.7668953125c0.08769550781250063-0.9365396484374998 0.043847753906251175-1.8595880859375 0.043847753906251175-2.7815115234374996C662.1723924804687 382.7970014648438 662.216240234375 381.87395390625 662.1285447265625 380.95202958984373z"  horiz-adv-x="1024" />

    
    <glyph glyph-name="weizhi" unicode="&#59007;" d="M512.5 628.1c-82.2 0-149-66.8-149-149s66.8-149 149-149 149 66.8 149 149c0 82.1-66.8 149-149 149z m0-234c-46.9 0-85 38.1-85 85s38.1 85 85 85 85-38.1 85-85-38.1-85-85-85zM511.2-63.7h-0.1zM794.8 709.6C732.2 786.4 626.2 832.3 511.2 832.3c-51 0-101.9-9.6-147.4-27.7-51-20.3-93.6-50.3-126.5-89-42.3-49.6-88-138.2-65.3-277.7 40.2-247.4 296.2-479.5 307.1-489.3 9.1-8.2 20.6-12.3 32-12.3 11.8 0 23.6 4.3 32.8 13 10.4 9.7 255 241 306 486.6 28.2 135.6-14.4 223.7-55.1 273.7zM786.9 453C748 266.2 584 77.6 510.3 0.3 434.5 76.8 265.8 265 235.5 450.7c-15.2 93.1 1.4 168.7 49.2 224.6 49.8 58.2 134.4 92.9 226.3 92.9 97.5 0 185.6-36.6 235.8-98C792 615 805.5 541.9 786.9 453z"  horiz-adv-x="1024" />

    
    <glyph glyph-name="location" unicode="&#58908;" d="M527.115496-127.99851799999999c-63.823748-0.560128-384.070704 479.246695-384.070703 639.928809 0 212.189015 171.879699 384.070704 384.070703 384.070704 212.189015 0 384.070704-171.879699 384.070704-384.070704-0.560128-158.441602-321.364227-640.488937-384.070704-639.928809z m0 959.613647c-176.917866 0-319.684838-143.3271-319.684838-319.684838 0-133.806914 266.496557-544.191694 319.684838-543.631566 52.628153 0 319.684838 411.502051 319.684838 543.631566 0 176.358733-143.3271 319.684838-319.684838 319.684838z m0-479.805828c-88.458435 0-160.121985 71.66355-160.121985 160.121985s71.66355 160.121985 160.121985 160.121986 160.121985-71.66355 160.121986-160.121986c-0.560128-88.458435-72.222683-160.121985-160.121986-160.121985z m0 255.8591c-53.186291 0-95.738109-43.109957-95.738109-95.73811s43.109957-95.738109 95.738109-95.738109c53.186291 0 95.738109 43.109957 95.73811 95.738109 0 52.628153-43.109957 95.738109-95.73811 95.73811z"  horiz-adv-x="1024" />

    
    <glyph glyph-name="mifenqia" unicode="&#58898;" d="M837.824-120H170.048s-34.24 24.768-56.128 60.736c-11.648 26.56-13.888 54.272-13.888 54.272V811.712l34.816 41.216 26.304 31.04h512.064l250.752-250.752V-28.8s0.192-27.264-20.032-63.232c-32-31.488-66.112-27.968-66.112-27.968z m-631.872 64h604.224l49.792 52.736V606.72l-213.248 213.248H190.848l-26.816-31.68v-775.296l41.92-68.992zM252.032 739.968h64v-216h-64zM364.736 739.968h64v-216h-64zM480 739.968h64v-216h-64zM256 299.968h164.032V416H284.032L256 384zM791.232 132.416l-175.552-0.832 0.64-116.032 136 0.768 27.776 32.128zM615.68 416v-116.032h180.352V382.016L752 416zM428.736 17.408l-1.856 116.032-180.288-2.88 1.344-81.92 44.48-33.344zM254.784 277.76h166.4v-107.52h-166.4zM456 416h128v-400.448h-128zM615.68 280h180.288v-112H615.68z"  horiz-adv-x="1024" />

    
    <glyph glyph-name="mifenqia-copy" unicode="&#58899;" d="M837.824-120H170.048s-34.24 24.768-56.128 60.736c-11.648 26.56-13.888 54.272-13.888 54.272V811.712l34.816 41.216 26.304 31.04h512.064l250.752-250.752V-28.799999999999955s0.192-27.264-20.032-63.232c-32-31.488-66.112-27.968-66.112-27.968z m-631.872 64h604.224l49.792 52.736V606.72l-213.248 213.248H190.848l-26.816-31.68v-775.296l41.92-68.992zM252.032 739.968h64v-216h-64zM364.736 739.968h64v-216h-64zM480 739.968h64v-216h-64zM256 299.96799999999996h164.032V416H284.032L256 384zM791.232 132.41600000000005l-175.552-0.832 0.64-116.032 136 0.768 27.776 32.128zM615.68 416v-116.032h180.352V382.01599999999996L752 416zM428.736 17.408000000000015l-1.856 116.032-180.288-2.88 1.344-81.92 44.48-33.344zM254.784 277.76h166.4v-107.52h-166.4zM456 416h128v-400.448h-128zM615.68 280h180.288v-112H615.68z"  horiz-adv-x="1024" />

    
    <glyph glyph-name="sevenday1" unicode="&#58900;" d="M982.65099307 597.33341867c0 0-0.074224-0.203024-0.20848107-0.5785088l-0.08186453 0.5785088-77.95683094-161.69111147 82.69514774 9.51374613c5.95427733-68.88842773-3.773408-138.75267947-29.29875734-204.91774826-22.35773973-57.95460587-55.39060907-109.7890208-98.18063573-154.06570667-41.33611307-42.77256213-89.99855253-76.73868693-144.63382507-100.955296-54.63527253-24.21551787-112.4829088-37.45901013-171.93508906-39.35935787-61.54354453-1.9680224-122.13309547 8.37091733-180.08770134 30.72756587-57.95460587 22.35773973-109.79011307 55.39060907-154.06679786 98.18063573-42.77146987 41.33611307-76.73868693 89.99855253-100.955296 144.63382507-24.21551787 54.63527253-37.45901013 112.4829088-39.35935787 171.93508907-1.9669312 61.54245333 8.37091733 122.13309547 30.72865707 180.08770133 22.35773973 57.95460587 55.39060907 109.79011307 98.17954453 154.06679787 41.33611307 42.77146987 89.99964373 76.73868693 144.63382507 100.955296 54.63527253 24.21551787 112.484 37.45901013 171.93508906 39.35935786 61.54245333 1.9669312 122.13309547-8.37091733 180.08770134-30.72865706 52.68253227-20.32422507 100.484848-49.59569493 142.07965333-87.00449494l21.89711573 24.34759254c-44.57030613 40.08413227-95.77491093 71.44478293-152.1915552 93.20873173-62.06529493 23.943728-126.9729248 35.01508267-192.91968746 32.9062528-63.68730347-2.03678827-125.6478112-16.21790187-184.15800427-42.15148267-58.510192-25.9335808-110.62949653-62.3163456-154.91163947-108.13535786-45.85285013-47.44429547-81.24123413-102.97134613-105.18496213-165.03664107C44.81569493 521.1437696 33.74434027 456.23613973 35.85317013 390.289376c2.03569707-63.68839467 16.21790187-125.6478112 42.15148267-184.15800427 25.9335808-58.510192 62.3163456-110.63058773 108.13535787-154.91273173 47.44429547-45.85285013 102.97134613-81.24123413 165.03664106-105.18496213 62.06529493-23.943728 126.9729248-35.01508267 192.91968747-32.9062528 63.68839467 2.03569707 125.6478112 16.21790187 184.15800427 42.15257493 58.510192 25.9335808 110.63058773 62.3152544 154.91163946 108.13535787 45.85285013 47.44429547 81.24123413 102.97134613 105.18496214 165.03664106C1034.52906987 348.1520832 1032.504288 479.1571072 982.65099307 597.33341867zM521.8062752 188.24015999999995c11.02878507 126.95546027 61.38963947 248.41180907 151.11640213 364.33630187l0 64.17303253L358.2683008 616.7494944l0-72.4533536 219.42959467 0c-82.80320853-111.78542293-132.48513387-230.49221653-149.0468672-356.0559808L521.8062752 188.24015999999995z"  horiz-adv-x="1024" />

    
    <glyph glyph-name="sevenday2" unicode="&#58902;" d="M982.65099307 574.57786311c0 0-0.074224-0.203024-0.20848107-0.5785088l-0.08186453 0.5785088-77.95683094-161.69111146 82.69514774 9.51374613c5.95427733-68.88842773-3.773408-138.75267947-29.29875734-204.91774827-22.35773973-57.95460587-55.39060907-109.7890208-98.18063573-154.06570666-41.33611307-42.77256213-89.99855253-76.73868693-144.63382507-100.955296-54.63527253-24.21551787-112.4829088-37.45901013-171.93508906-39.35935787-61.54354453-1.9680224-122.13309547 8.37091733-180.08770134 30.72756587-57.95460587 22.35773973-109.79011307 55.39060907-154.06679786 98.18063573-42.77146987 41.33611307-76.73868693 89.99855253-100.955296 144.63382507-24.21551787 54.63527253-37.45901013 112.4829088-39.35935787 171.93508906-1.9669312 61.54245333 8.37091733 122.13309547 30.72865707 180.08770134 22.35773973 57.95460587 55.39060907 109.79011307 98.17954453 154.06679786 41.33611307 42.77146987 89.99964373 76.73868693 144.63382507 100.955296 54.63527253 24.21551787 112.484 37.45901013 171.93508906 39.35935787 61.54245333 1.9669312 122.13309547-8.37091733 180.08770134-30.72865707 52.68253227-20.32422507 100.484848-49.59569493 142.07965333-87.00449493l21.89711573 24.34759253c-44.57030613 40.08413227-95.77491093 71.44478293-152.1915552 93.20873174-62.06529493 23.943728-126.9729248 35.01508267-192.91968746 32.9062528-63.68730347-2.03678827-125.6478112-16.21790187-184.15800427-42.15148267-58.510192-25.9335808-110.62949653-62.3163456-154.91163947-108.13535787-45.85285013-47.44429547-81.24123413-102.97134613-105.18496213-165.03664106C44.81569493 498.38821405 33.74434027 433.48058418 35.85317013 367.53382045c2.03569707-63.68839467 16.21790187-125.6478112 42.15148267-184.15800427 25.9335808-58.510192 62.3163456-110.63058773 108.13535787-154.91273173 47.44429547-45.85285013 102.97134613-81.24123413 165.03664106-105.18496214 62.06529493-23.943728 126.9729248-35.01508267 192.91968747-32.9062528 63.68839467 2.03569707 125.6478112 16.21790187 184.15800427 42.15257494 58.510192 25.9335808 110.63058773 62.3152544 154.91163946 108.13535786 45.85285013 47.44429547 81.24123413 102.97134613 105.18496214 165.03664107C1034.52906987 325.39652765000005 1032.504288 456.40155165 982.65099307 574.57786311zM521.8062752 165.48460445c11.02878507 126.95546027 61.38963947 248.41180907 151.11640213 364.33630186l0 64.17303254L358.2683008 593.99393885l0-72.4533536 219.42959467 0c-82.80320853-111.78542293-132.48513387-230.49221653-149.0468672-356.0559808L521.8062752 165.48460445z"  horiz-adv-x="1024" />

    
    <glyph glyph-name="Fma" unicode="&#58904;" d="M512 584.348h111.304c24.59 0 44.521 19.932 44.521 44.52 0 24.59-19.932 44.522-44.521 44.522H489.739c-73.766 0-133.565-59.799-133.565-133.565V139.13c0-24.59 19.932-44.521 44.521-44.521 24.59 0 44.521 19.932 44.521 44.521V250.435c0 36.884 29.899 66.782 66.783 66.782h111.304c24.59 0 44.521 19.933 44.521 44.522 0 24.59-19.932 44.521-44.521 44.521H512c-36.884 0-66.783 29.9-66.783 66.783v44.521c0 36.885 29.899 66.784 66.783 66.784zM512 896C229.231 896 0 666.77 0 384s229.231-512 512-512 512 229.23 512 512S794.769 896 512 896z m0-934.956C278.407-38.956 89.044 150.407 89.044 384S278.407 806.956 512 806.956 934.956 617.592 934.956 384 745.592-38.956 512-38.956z"  horiz-adv-x="1024" />

    
    <glyph glyph-name="shouji1" unicode="&#58905;" d="M808.491 832H215.508c-37.056 0-67.111-29.795-67.111-67.332v-761.334c0-37.186 30.23-67.333 67.111-67.333h592.983c37.056 0 67.112 29.795 67.112 67.333V764.668C875.603 801.854 845.37 832 808.491 832z m-297.65-839.999c-30.91 0-56.001 25.092-56.001 56.002 0 30.906 25.091 55.997 56.001 55.997 30.907 0 55.998-25.091 55.998-55.997 0-30.911-25.045-56.002-55.998-56.002z m255.158 210.14c0-12.011-10.215-22.138-22.835-22.138h-462.33c-12.62 0-22.835 9.908-22.835 22.138V700.26c0 12.011 10.216 22.138 22.835 22.138h462.372c12.579 0 22.793-9.909 22.793-22.138v-498.119z"  horiz-adv-x="1024" />

    
    <glyph glyph-name="shouye-shiwutiantuihuo" unicode="&#59045;" d="M334.48 144.63h98.46V623.37h-62.4q-60.6-45.2-143.61-69V472q26.36 3 57.87 15.31t49.69 27.8z m462.59 157.89q0 63-39.84 99.91t-108.62 36.88q-21.21 0-46.35-2.08l6.67 96.94h169.36v79.1H529.85L512.28 359q48.17 5.35 85.13 5.35 100 0 100-71.66 0-34.2-23.48-54.27t-65-20.07q-55.15 0-103.92 29.14v-83q46-19.92 113-19.92 82.71 0 130.88 44.16t48.18 113.79z m161.15 59.13h-0.3a5 5 0 0 1-5-4.7 443.59 443.59 0 0 0-7.37-58.16 5 5 0 0 1 9.81-1.92l0.07 0.36v0.15l0.09 0.47v0.14l0.09 0.48v0.16l0.13 0.67 0.13 0.68 0.16 0.86q1.52 8.23 2.75 16.56l0.1 0.7 0.1 0.69v0.17l0.07 0.51v0.16l0.07 0.5v0.16l0.07 0.49v0.15l0.07 0.49v0.3l0.07 0.51v0.15l0.07 0.49v0.19l0.06 0.46v0.2l0.06 0.45v0.26l0.06 0.44v23.06q0.33 4.21 0.58 8.43a5 5 0 0 1-1.94 5.29zM592.76-50.42a5 5 0 0 1-0.9-0.08 444.27 444.27 0 0 0-58.26-6.64 5 5 0 0 1 0.23-10h0.24q3 0.14 5.92 0.32h26.18l0.43 0.05h0.18l0.43 0.05h2.94l0.42 0.05h9.64l0.45 0.07h0.24l0.46 0.07h0.15l0.5 0.08h0.17l0.69 0.11q5.36 0.84 10.66 1.81a5 5 0 0 1-0.91 9.92z m112.52 36.51a5 5 0 0 1-2.16-0.49 440 440 0 0 0-54.42-21.78 5 5 0 0 1 3.07-9.52q15.78 5.12 31 11.35l0.63 0.26 0.63 0.26 0.47 0.19 0.15 0.06 0.46 0.19 0.15 0.06 0.46 0.19 0.61 0.26 0.46 0.19 0.15 0.06 0.45 0.19 0.14 0.06 0.44 0.18 0.14 0.06 0.45 0.19 0.45 0.19 0.14 0.06 0.45 0.19 0.15 0.06 0.45 0.19 0.61 0.26 0.61 0.27 0.62 0.27 0.47 0.21q7.33 3.21 14.54 6.66a5 5 0 0 1-2.19 9.5zM475-56.09a442.44 442.44 0 0 0-58 8.76 5 5 0 1 1-2.15-9.77q6.79-1.5 13.66-2.79h0.22l0.67-0.13 0.45-0.08h0.21l0.44-0.08h0.2l0.44-0.08h6.9l0.42-0.07h0.26l0.44-0.07h0.25l0.46-0.07h0.14l0.48-0.08h0.15l0.66-0.1 0.67-0.1 0.68-0.1 0.69-0.11q15.1-2.31 30.53-3.61h0.4a5 5 0 0 1 0.41 10zM804.22 51a5 5 0 0 1-3.27-1.22 444.59 444.59 0 0 0-46.79-35.34 5 5 0 0 1 5.47-8.37q5.75 3.77 11.38 7.71l0.41 0.29 0.14 0.1 0.41 0.29 0.54 0.38 0.39 0.28 0.13 0.09 0.38 0.27 0.12 0.09 0.25 0.18 0.12 0.08 0.37 0.26 0.12 0.08 0.25 0.18 0.12 0.09 0.37 0.27 0.11 0.08 0.22 0.16 0.11 0.08h0.05l0.11 0.08 0.2 0.15h0.05l0.11 0.08 0.35 0.25h0.06l0.11 0.08 0.21 0.15 0.11 0.08h0.06l0.1 0.07 0.19 0.14h0.06l0.1 0.07h0.07l0.19 0.14 0.1 0.07h0.06l0.1 0.07 0.07 0.05 0.16 0.12h0.07l0.1 0.07 0.07 0.05 0.09 0.07 0.08 0.06 0.15 0.11 0.07 0.05 0.09 0.07 0.07 0.05 0.16 0.12h0.07l0.09 0.07 0.07 0.05 0.09 0.07 0.1 0.07 0.12 0.09 0.08 0.06 0.09 0.07 0.08 0.06 0.08 0.06 0.14 0.11 0.08 0.06 0.08 0.06 0.69 0.89 0.08 0.06 0.14 0.1 0.09 0.07 0.08 0.06 0.08 0.06 0.08 0.06 0.14 0.1 0.08 0.06 0.09 0.07 0.08 0.06 0.09 0.07 0.07 0.06 0.15 0.11 0.07 0.05 0.1 0.07 0.07 0.05 0.11 0.09 0.1 0.08 0.1 0.07 0.08 0.06 0.09 0.07 0.07 0.06 0.15 0.11 0.07 0.05 0.1 0.07 0.07 0.06 0.11 0.08 0.08 0.06 0.12 0.09 0.08 0.06 0.09 0.07 0.07 0.06 0.12 0.09 0.1 0.07 0.09 0.07 0.07 0.06 0.1 0.08h0.06l0.15 0.11 0.07 0.05 0.1 0.07 0.16 0.15 0.12 0.09 0.08 0.06 0.12 0.09 0.07 0.05 0.1 0.08h0.07l0.15 0.12h0.06l0.1 0.08 0.07 0.05 0.11 0.08h0.06l0.15 0.11h0.06l0.1 0.08 0.07 0.05 0.15 0.12 0.13 0.1h0.06l0.11 0.08h0.06l0.15 0.12 0.07 0.05 0.1 0.08 0.07 0.05 0.12 0.09h0.07l0.13 0.1h0.06l0.11 0.09h0.06l0.16 0.12 0.12 0.09h0.06l0.13 0.1 0.16 0.12h0.06l0.12 0.09h0.05l0.16 0.13 0.14 0.11h0.05l0.12 0.09 0.16 0.12 0.12 0.1h0.05l0.15 0.12 0.16 0.13h0.05l0.12 0.09 0.16 0.13 0.15 0.11 0.14 0.11 0.17 0.13 0.15 0.12 0.34 0.27 0.14 0.11 0.17 0.14 0.16 0.12 0.17 0.13 0.17 0.14 0.15 0.12 0.34 0.27 0.35 0.28 0.17 0.13 0.99 1.46 0.17 0.14 0.35 0.28 0.36 0.29 0.54 0.44 0.54 0.43q5.82 4.71 11.49 9.61a5 5 0 0 1-3.27 8.78z m-443.51-81.92a440.6 440.6 0 0 0-53.58 23.77 5 5 0 0 1-4.68-8.84 448.79 448.79 0 0 1 54.84-24.33 5 5 0 0 1 3.41 9.4z m-103.54 54.46a445.21 445.21 0 0 0-45.47 37 5 5 0 0 1-6.82-7.32l0.12-0.11 0.15-0.14 0.12-0.11h0.05l0.11-0.1 0.14-0.13 0.06-0.05 0.1-0.09 0.06-0.06 0.11-0.1 0.09-0.08 0.09-0.08 0.08-0.07 0.07-0.07 0.08-0.07 0.13-0.12 0.08-0.07 0.07-0.06 0.08-0.07 0.07-0.07 0.15-0.14 0.06-0.05 0.09-0.09 0.1-0.09 0.21-0.19 0.11-0.1 0.33-0.3 0.11-0.1 0.24-0.22 0.11-0.1 0.36-0.32q16.54-15 34.52-28.38l0.38-0.28 0.12-0.09 0.25-0.18 0.11-0.08h0.05l0.11-0.08 0.23-0.17 0.1-0.08h0.06l0.18-0.13h0.06l0.09-0.07 0.07-0.05 0.08-0.06 0.1-0.08 0.11-0.08 0.1-0.08 0.07-0.05 0.11-0.08h0.06l0.16-0.12 0.13-0.09h0.05l0.16-0.12 0.17-0.13 0.14-0.1 0.36-0.26 0.18-0.13 0.38-0.27 3.43-2.46a5 5 0 1 1 5.79 8.15z m679.7 221.73a5 5 0 0 1-6.34-3.13A440.15 440.15 0 0 0 908.07 188a5 5 0 1 1 9-4.44q6.21 12.53 11.66 25.49l0.27 0.64 0.26 0.63 0.17 0.41 0.07 0.18 0.17 0.41 0.07 0.18 0.17 0.4 0.07 0.17 0.08 0.2 0.07 0.17 0.08 0.19 0.08 0.21 0.07 0.17 0.16 0.4 0.06 0.16 0.08 0.19 0.07 0.17v0.05l0.06 0.16 0.08 0.19 0.06 0.15v0.06l0.07 0.17 0.08 0.19v0.05l0.06 0.15v0.06l0.07 0.17 0.07 0.18v0.06l0.06 0.14v0.06l0.08 0.19 0.06 0.16v0.07l0.52 0.81v0.05l0.07 0.19v0.06l0.05 0.13v0.07l0.06 0.14v0.06l0.07 0.18v0.06l0.05 0.13v0.07l0.07 0.17 0.07 0.17v0.27l0.07 0.18v0.06l0.05 0.14v0.07l0.05 0.13v0.07l0.07 0.18v0.07l0.05 0.13v0.08l0.05 0.14v0.05l0.07 0.18v0.28l0.06 0.16 0.07 0.17v0.27l0.07 0.18v0.05l0.05 0.14v0.28l0.07 0.19v0.06l0.05 0.14v0.07l0.05 0.14v0.06l0.07 0.19v0.28l0.06 0.16 0.07 0.18v0.06l0.05 0.14v0.07l0.07 0.19v0.06l0.05 0.14v0.28l0.07 0.18v0.06l0.05 0.13v0.08l0.05 0.14v0.06l0.07 0.19v0.06l0.05 0.14v0.06l0.07 0.18 0.07 0.2v0.05l0.06 0.15v0.05l0.07 0.2 0.07 0.18v0.06l0.06 0.16 0.08 0.2 0.07 0.18 0.07 0.18 0.08 0.21 0.07 0.18 0.15 0.41 0.07 0.18 0.15 0.42 0.07 0.2 0.16 0.43 0.16 0.43 0.08 0.21q1.56 4.31 3 8.67a5 5 0 0 1-1.67 6.87zM957.58 411h0.36a5 5 0 0 1 4.63 5.34q-0.25 3.55-0.56 7.08l-0.06 0.7-0.06 0.69-0.06 0.68v6.66l-0.05 0.48v0.15l-0.07 0.68-0.08 0.69q-1.88 16.84-5 33.29l-0.13 0.68v0.16l-0.09 0.49v0.2l-0.08 0.43v0.27l-0.08 0.41v2.39l-0.08 0.42v0.18l-0.09 0.43v0.21l-0.14 0.67-0.19 0.91a5 5 0 1 1-9.79-2 443 443 0 0 0 8-58.08 5 5 0 0 1 3.62-4.21z m-72.04-272.33a5 5 0 0 1-6.94-1.35A444.9 444.9 0 0 0 842.67 91a5 5 0 0 1 7.46-6.66 453.29 453.29 0 0 1 36.76 47.42 5 5 0 0 1-1.35 6.91z m48.05 388.16a5 5 0 0 1 4.72 6.65v0.09l-0.16 0.44-0.05 0.15-0.16 0.46-0.23 0.64q-3.68 10.33-7.85 20.42l-0.46 1.11-0.06 0.15-0.19 0.45-0.06 0.15-0.19 0.44-0.06 0.14-0.12 0.3-0.06 0.13-0.06 0.13-0.12 0.28-0.05 0.12v0.06l-0.17 0.41-0.05 0.12v0.06l-0.12 0.27-0.05 0.12v0.06l-0.05 0.12v0.06l-0.1 0.23v0.05l-0.05 0.12v0.06l-0.05 0.12-0.1 0.23v0.42l-0.09 0.2v0.25l-0.09 0.21v0.45l-0.07 0.17v0.49l-0.06 0.14v0.38l-0.07 0.17v0.38l-0.06 0.13-0.06 0.13v0.28l-0.05 0.12-0.05 0.11-0.05 0.12v0.28l-0.07 0.15v0.09l-0.05 0.12v0.28l-0.08 0.17v0.07l-0.05 0.12v0.08l-0.05 0.12v0.07l-0.08 0.17v0.08l-0.05 0.11v0.08l-0.06 0.14v0.09l-0.06 0.13v0.08l-0.05 0.11v0.08l-0.08 0.17v0.06l-0.06 0.12v0.08l-0.06 0.13v0.06l-0.08 0.18v0.07l-0.06 0.13v0.07l-0.06 0.14v0.05l-0.08 0.18v0.07l-0.05 0.11v0.08l-0.07 0.15v0.07l-0.07 0.15v0.08l-0.05 0.12v0.07l-0.08 0.18v0.07l-0.05 0.12v0.08l-0.05 0.11v0.07l-0.08 0.17v0.08l-0.05 0.11v0.08l-0.06 0.13v0.06l-0.08 0.17v0.08l-0.05 0.11v0.08l-0.07 0.14v0.09l-0.06 0.13v0.08l-0.05 0.11v0.08l-0.08 0.17v0.07l-0.05 0.11v0.27l-0.08 0.17v0.38l-0.05 0.12-0.06 0.13v0.27l-0.05 0.11-0.07 0.14v0.37l-0.05 0.12-0.07 0.14v0.27l-0.09 0.18v0.07l-0.05 0.11v0.08l-0.05 0.11v0.06l-0.1 0.21v0.05l-0.05 0.11v0.07l-0.05 0.11-0.11 0.23v0.05l-0.06 0.12v0.06l-0.19 0.39v0.05l-0.06 0.12-0.2 0.41-0.06 0.13-0.13 0.28-0.06 0.13-0.21 0.43-0.07 0.14c-1.41 2.93-2.85 5.81-4.32 8.7a5 5 0 0 1-8.9-4.57 440.28 440.28 0 0 0 23.09-53.88 5 5 0 0 1 0.78-2.57z m-53.75 105.4a5 5 0 0 1 4.12 7.83c-1.67 2.42-3.36 4.81-5.08 7.19l-0.28 0.39-0.09 0.13-0.27 0.37-0.08 0.11-0.16 0.22-0.08 0.1v0.06l-0.07 0.1-0.14 0.19-0.05 0.07-0.07 0.09-0.06 0.08-0.08 0.11-0.08 0.11-0.06 0.08-0.07 0.09-0.06 0.08-0.1 0.14-0.05 0.07-0.07 0.1-0.05 0.07-0.08 0.11v0.06l-0.12 0.16v0.06l-0.08 0.11v0.07l-0.11 0.14-0.11 0.15v0.06l-0.09 0.12-0.12 0.17-0.1 0.14-0.12 0.16-0.13 0.17-0.1 0.14-0.26 0.35-0.13 0.17-0.14 0.18-0.12 0.17-0.27 0.37-0.42 0.56q-4.92 6.57-10.07 12.95l-0.88 1.09-0.29 0.35-0.43 0.53-0.28 0.35-0.13 0.15-0.28 0.34-0.12 0.15-0.14 0.17-0.12 0.15-0.28 0.34-0.11 0.14-0.14 0.16-0.11 0.14-0.12 0.14-0.13 0.16-0.1 0.12-0.13 0.15-0.1 0.12-0.05 0.06-0.09 0.1-0.05 0.06-0.12 0.14-0.06 0.07-0.07 0.08-0.06 0.07-0.08 0.1-0.08 0.1-0.08 0.1-0.07 0.08-0.06 0.08-0.07 0.08-0.07 0.08-0.12 0.14-0.06 0.07-0.07 0.09-0.06 0.07-0.14 0.16v0.05l-0.08 0.1v0.05l-0.09 0.1-0.17 0.21-0.09 0.1-0.29 0.35-0.1 0.12-0.32 0.38q-4.9 5.78-10 11.37a5 5 0 0 1-7.39-6.74 445 445 0 0 0 36.45-45.93 5 5 0 0 1 2.93-0.99z m-642.79 97.94a5 5 0 0 1 3.08 1.07 443.91 443.91 0 0 0 48.43 33.05 5 5 0 1 1-5.08 8.62l-3.23-1.91-1-0.61-0.2-0.12-0.39-0.24-0.39-0.24-0.19-0.11-0.38-0.23-0.17-0.1-0.19-0.12-0.17-0.1-0.17-0.1-0.19-0.11-0.15-0.09-0.18-0.11-0.18-0.11-0.16-0.1-0.18-0.11-0.15-0.09h-0.06l-0.15-0.09-0.18-0.11-0.14-0.09-0.18-0.11-0.15-0.09h-0.05l-0.14-0.08-0.17-0.11h-0.05l-0.13-0.08h-0.06l-0.16-0.1-0.17-0.11h-0.06l-0.13-0.08h-0.06l-0.17-0.11-0.13-0.08h-0.06l-0.13-0.08-0.17-0.11h-0.06l-0.12-0.07h-0.07l-0.14-0.09h-0.06l-0.14-0.09h-0.07l-0.11-0.07h-0.06l-0.16-0.1h-0.06l-0.12-0.08h-0.06l-0.13-0.08h-0.05l-0.16-0.1h-0.07l-0.11-0.07h-0.07l-0.14-0.09h-0.08l-0.12-0.07h-0.07l-0.12-0.08h-0.06l-0.16-0.1h-0.07l-0.11-0.07h-0.07l-0.13-0.08h-0.06l-0.15-0.1h-0.07l-0.11-0.07h-0.06l-0.16-0.11h-0.05l-0.12-0.08h-0.07l-0.12-0.08h-0.06l-0.16-0.1h-0.07l-0.11-0.07h-0.07l-0.14-0.09h-0.06l-0.13-0.09h-0.07l-0.11-0.07h-0.07l-0.16-0.1h-0.06l-0.12-0.07h-0.07l-0.12-0.08h-0.05l-0.16-0.11h-0.06l-0.11-0.07h-0.07l-0.16-0.1-0.14-0.09h-0.06L266 762h-0.06l-0.16-0.11h-0.06l-0.12-0.08h-0.06l-0.14-0.09-0.17-0.11h-0.06l-0.12-0.08h-0.06l-0.17-0.11-0.13-0.09h-0.06l-0.13-0.08h-0.05l-0.17-0.11h-0.05l-0.12-0.08h-0.06l-0.16-0.11-0.17-0.11h-0.06l-0.13-0.08-0.17-0.11-0.14-0.09h-0.06l-0.14-0.09-0.17-0.11-0.14-0.09-0.35-0.23-0.14-0.09-0.18-0.12-0.14-0.1-0.15-0.1-0.17-0.12-0.14-0.09-0.18-0.12-0.17-0.11-0.16-0.11-0.18-0.12-0.16-0.11-0.36-0.24-0.15-0.1-0.18-0.12-0.16-0.11-0.16-0.11-0.18-0.12-0.14-0.1-0.17-0.12-0.17-0.11-0.14-0.1-0.18-0.12-0.15-0.1-0.16-0.11L257 756l-0.14-0.1-0.18-0.12-0.16-0.11-0.14-0.1-0.18-0.12-0.15-0.1-0.35-0.24-0.15-0.1-0.17-0.12-0.15-0.1-0.15-0.1-0.17-0.12-0.14-0.1-0.34-0.24-0.13-0.09-0.17-0.12-0.14-0.1-0.15-0.11-0.17-0.12-0.13-0.09h-0.05l-0.17-0.12-0.14-0.1h-0.06l-0.13-0.09-0.17-0.12h-0.05l-0.12-0.09h-0.06l-0.14-0.1-0.16-0.12h-0.06l-0.12-0.08h-0.06l-0.17-0.12-0.14-0.1h-0.06l-0.12-0.09h-0.05l-0.16-0.11h-0.06l-0.11-0.08h-0.07l-0.13-0.09h-0.07l-0.13-0.1h-0.07l-0.1-0.07-0.07-0.05-0.15-0.11h-0.07l-0.1-0.07-0.07-0.05-0.1-0.07h-0.07l-0.15-0.11-0.08-0.06-0.09-0.06-0.08-0.06-0.1-0.07-0.13-0.09-0.09-0.06-0.09-0.06-0.08-0.06-0.09-0.06-0.14-0.1-0.09-0.07-0.07-0.05-0.09-0.07h-0.07l-0.19-0.14-0.11-0.08h-0.05l-0.11-0.08-0.2-0.14h-0.05l-0.1-0.08h-0.05l-0.35-0.26-0.11-0.08-0.38-0.28-0.39-0.29-0.13-0.1q-5.72-4.21-11.31-8.59a5 5 0 0 1 3.11-8.92z m216.11 91.08a5 5 0 0 1 0.66 0 447.35 447.35 0 0 0 58.52 3.84 5 5 0 0 1 0 10h-15.18q-22.64-0.75-44.68-3.68a5 5 0 0 1 0.65-10zM339 790.23a5 5 0 0 1 1.94 0.39 439.51 439.51 0 0 0 55.41 19.12 5 5 0 0 1-2.6 9.66A447.67 447.67 0 0 1 348 804.27l-0.63-0.25-0.47-0.19-0.15-0.06-0.45-0.18-0.15-0.06-0.45-0.18-0.15-0.06-0.45-0.18-0.14-0.06-0.45-0.18-0.45-0.18-0.14-0.06-0.43-0.17-0.13-0.05h-0.05l-0.42-0.17-0.13-0.05-0.41-0.17h-0.24l-0.25-0.1-0.13-0.05h-0.06l-0.12-0.05-0.25-0.1-0.13-0.05h-0.05l-0.13-0.05-0.26-0.11h-0.36l-0.25-0.11h-0.25l-0.39-0.16h-0.25l-0.21-0.09h-0.42l-0.2-0.08h-0.45l-0.19-0.08h-0.14a5 5 0 0 1 2-9.6z m189.51 34.62a444.89 444.89 0 0 0 58.33-6 5 5 0 1 1 1.68 9.86q-18.72 3.18-37.95 4.8l-0.7 0.06-0.7 0.06h-0.22l-0.69 0.05h-0.68l-0.68 0.05h-2.56L544 834h-15.29a5 5 0 0 1-0.18-10z m115.33-19.63a439.9 439.9 0 0 0 54.67-21.15 5 5 0 1 1 4.22 9.06Q695 796.73 687.16 800l-0.64 0.27-0.42 0.18-0.21 0.09-0.42 0.18-0.21 0.09-0.21 0.09-0.2 0.08-0.41 0.17-0.18 0.08-0.4 0.17-0.17 0.07-0.2 0.08-0.19 0.08-0.17 0.07-0.2 0.08-0.17 0.07h-0.05l-0.16 0.07-0.19 0.08-0.15 0.06h-0.05l-0.19 0.08-0.2 0.08h-0.06l-0.14 0.06h-0.06l-0.19 0.08-0.17 0.07h-0.06l-0.14 0.06h-0.06l-0.19 0.08-0.15 0.06L680 803l-0.15 0.06-0.19 0.08h-0.06l-0.14 0.06h-0.07l-0.15 0.06-0.24 0.14h-0.07l-0.13 0.05h-0.08l-0.17 0.07-0.17 0.07h-0.07l-0.13 0.05h-0.07l-0.18 0.07h-0.05l-0.14 0.06h-0.28l-0.18 0.07h-0.47l-0.17 0.07h-0.39l-0.15 0.06h-0.5l-0.17 0.06h-0.49l-0.15 0.06h-0.27l-0.2 0.08h-0.45l-0.19 0.07h-0.46l-0.19 0.07h-0.44l-0.21 0.08h-0.25l-0.4 0.15h-0.24l-0.27 0.1h-0.37l-0.25 0.09h-0.32l-0.26 0.1h-0.18l-0.43 0.16-0.14 0.05-0.44 0.16-0.15 0.05-0.46 0.17-0.15 0.05-0.47 0.17-0.46 0.17-0.15 0.06-0.47 0.17-0.16 0.06-0.48 0.17q-9.24 3.33-18.64 6.26a5 5 0 0 1-3-9.55zM192.91 700.57a5 5 0 0 1-3.58-1.51l-0.14-0.14-0.13-0.13-0.15-0.15-0.11-0.11-0.14-0.15-0.13-0.13-0.1-0.11-0.14-0.14v-0.05l-0.1-0.1-0.05-0.05-0.11-0.12-0.13-0.14-0.05-0.05-0.1-0.1-0.05-0.06-0.13-0.14-0.1-0.1-0.06-0.06-0.09-0.1-0.05-0.06-0.13-0.13-0.07-0.07-0.08-0.08-0.06-0.06-0.11-0.12-0.06-0.07-0.1-0.1-0.06-0.06-0.09-0.09-0.06-0.06-0.13-0.14-0.06-0.06-0.09-0.09-0.06-0.06-0.1-0.1-0.06-0.07-0.11-0.12-0.07-0.07-0.07-0.08-0.07-0.07-0.1-0.11-0.09-0.09-0.07-0.08-0.07-0.08-0.07-0.07-0.11-0.11-0.09-0.09-0.07-0.08-0.07-0.07-0.07-0.08-0.08-0.08-0.12-0.12-0.07-0.07-0.08-0.08-0.06-0.07-0.08-0.08-0.12-0.13-0.07-0.07-0.07-0.08-0.07-0.08-0.07-0.07-0.12-0.13-0.07-0.07-0.07-0.08-0.07-0.07-0.08-0.08-0.07-0.08-0.12-0.13-0.06-0.07-0.08-0.08-0.06-0.07-0.12-0.13-0.07-0.07-0.08-0.08-0.06-0.07-0.08-0.08-0.06-0.07-0.13-0.14-0.06-0.07-0.08-0.08-0.06-0.07-0.07-0.08-0.09-0.1-0.11-0.12-0.05-0.06-0.08-0.09-0.05-0.05-0.15-0.16-0.08-0.09-0.05-0.06-0.08-0.09v-0.05l-0.15-0.16-0.05-0.06-0.08-0.09-0.05-0.06-0.15-0.17-0.08-0.09-0.05-0.06-0.09-0.09v-0.05l-0.14-0.15-0.06-0.07-0.08-0.08-0.06-0.07-0.08-0.08-0.06-0.06-0.14-0.15-0.06-0.06-0.08-0.09-0.06-0.06-0.14-0.15-0.06-0.07-0.08-0.08-0.06-0.06-0.08-0.09v-0.05l-0.15-0.16-0.06-0.06-0.08-0.08-0.06-0.07-0.09-0.1-0.1-0.11-0.07-0.08-0.07-0.08-0.07-0.07-0.08-0.09-0.1-0.11-0.65-0.5-0.07-0.08-0.06-0.07-0.07-0.08-0.11-0.12-0.08-0.09-0.07-0.07-0.07-0.08-0.07-0.08-0.09-0.1-0.09-0.1-0.07-0.08-0.15-0.05-0.07-0.08-0.09-0.1-0.1-0.11-0.07-0.08-0.07-0.08-0.07-0.07-0.07-0.08-0.12-0.13-0.07-0.07-0.07-0.08-0.07-0.08-0.07-0.08-0.1-0.11-0.08-0.09-0.07-0.08-0.07-0.08-0.06-0.07-0.12-0.14-0.06-0.07-0.08-0.09-0.07-0.07-0.07-0.08-0.1-0.11-0.09-0.1-0.06-0.07-0.08-0.09-0.06-0.07-0.1-0.11-0.08-0.09-0.08-0.09-0.06-0.07-0.08-0.1-0.05-0.06-0.12-0.14-0.06-0.07-0.08-0.09-0.06-0.07-0.08-0.09-0.09-0.1-0.08-0.1-0.06-0.07-0.08-0.09-0.06-0.07-0.12-0.14-0.05-0.06-0.08-0.1-0.06-0.07-0.1-0.11-0.13-0.15-0.05-0.06-0.09-0.1v-0.06l-0.13-0.15-0.11-0.12-0.05-0.06-0.1-0.11-0.13-0.15-0.1-0.11v-0.05l-0.12-0.13-0.13-0.15-0.1-0.11-0.13-0.15-0.1-0.12-0.11-0.13-0.14-0.16-0.11-0.13-0.14-0.16-0.13-0.15-0.11-0.13-0.13-0.16-0.11-0.12-0.81-0.83-0.14-0.16-0.11-0.13-0.14-0.16-0.12-0.14-0.13-0.15-0.14-0.16-0.11-0.13-0.28-0.32-0.12-0.14-0.14-0.17-0.13-0.15-0.28-0.33-0.13-0.15-0.29-0.35-0.29-0.35-0.14-0.16-0.29-0.34-0.44-0.52-0.3-0.35-0.45-0.53-1.19-1.44q-5.82-7-11.37-14.33l-0.28-0.37-0.14-0.18-0.28-0.37-0.41-0.55-0.27-0.36-0.13-0.17-0.14-0.18-0.13-0.17-0.27-0.36-0.12-0.16-0.26-0.35a5 5 0 0 1 8-6 445.37 445.37 0 0 0 38.1 44.57 5 5 0 0 1-3.58 8.49z m556.98 55.26A444.51 444.51 0 0 0 797.07 721a5 5 0 0 1 6.45 7.64l-0.35 0.3-0.35 0.29-0.17 0.14-0.34 0.29-0.15 0.12-0.17 0.14-0.14 0.12-0.33 0.27-0.12 0.1-0.16 0.13-0.12 0.1h-0.06l-0.11 0.09h-0.05l-0.15 0.13-0.11 0.09h-0.06l-0.15 0.12-0.14 0.11h-0.06l-0.11 0.09h-0.05l-0.15 0.12h-0.05l-0.11 0.09h-0.06l-0.11 0.09-0.06 0.05-0.14 0.11-0.07 0.05-0.09 0.08-0.07 0.06-0.12 0.1-0.09 0.07-0.09 0.07-0.08 0.07-0.08 0.06-0.12 0.1-0.09 0.07-0.09 0.07-0.06 0.05-0.09 0.08h-0.06l-0.18 0.14h-0.05l-0.09 0.08h-0.06l-0.09 0.08h-0.05l-0.18 0.15h-0.05l-0.1 0.08-0.34 0.27-0.11 0.09-0.23 0.18-0.11 0.09-0.36 0.29-0.12 0.09-0.23 0.19-0.11 0.09-0.37 0.29-0.12 0.1-0.37 0.29-0.51 0.41-0.37 0.3-0.12 0.1-0.38 0.3-0.39 0.31-0.13 0.1-0.39 0.31-0.52 0.41-0.38 0.3-0.12 0.1-0.38 0.3-0.38 0.3-0.12 0.09-0.37 0.29-0.12 0.1-0.38 0.3-0.38 0.29-0.12 0.09-0.37 0.29-0.12 0.09-0.38 0.29L787 742l-0.11 0.09-0.36 0.28-0.37 0.29-0.12 0.09-0.36 0.27-0.11 0.08-0.21 0.16-0.1 0.08h-0.06l-0.1 0.08-0.19 0.14h-0.06l-0.1 0.07h-0.06l-0.2 0.15-0.1 0.07h-0.07l-0.09 0.07h-0.07l-0.16 0.12-0.07 0.05-0.09 0.07-0.08 0.06-0.09 0.07-0.08 0.06-0.15 0.11-0.07 0.05-0.37 0.49-0.08 0.06-0.12 0.09-0.1 0.08-0.08 0.06-0.09 0.06-0.08 0.06-0.11 0.08-0.11 0.08-0.09 0.07-0.08 0.06-0.09 0.07-0.08 0.06-0.15 0.11-0.08 0.06-0.09 0.07-0.08 0.06-0.1 0.08-0.09 0.07-0.12 0.09-0.08 0.06-0.09 0.07-0.08 0.06-0.15 0.11h-0.07l-0.1 0.07-0.07 0.05-0.1 0.08h-0.06l-0.15 0.11h-0.06l-0.1 0.08-0.07 0.05-0.12 0.09-0.08 0.06-0.12 0.09h-0.07l-0.11 0.08h-0.06l-0.15 0.11h-0.06l-0.11 0.08h-0.06l-0.13 0.1-0.16 0.12h-0.06l-0.12 0.09h-0.06l-0.16 0.12-0.14 0.1-0.14 0.1-0.17 0.12-0.13 0.1-0.16 0.12-0.16 0.12h-0.05l-0.13 0.09-0.17 0.12-0.15 0.11-0.16 0.11-0.17 0.13-0.15 0.11-0.35 0.25-0.15 0.11-0.18 0.13-0.16 0.12-0.36 0.26-0.16 0.11-0.36 0.26-0.18 0.13-0.19 0.13-0.18 0.13-0.37 0.26-0.18 0.13-0.38 0.27-0.38 0.27L772 753l-0.38 0.27-0.57 0.4-1 0.67q-5 3.49-10.1 6.84l-0.58 0.38-0.58 0.38-0.38 0.25-0.18 0.12-0.19 0.13-0.18 0.12-0.37 0.24-0.17 0.11-0.37 0.24-0.17 0.11-0.18 0.12-0.15 0.1-0.36 0.23-0.14 0.09-0.18 0.11-0.13 0.09a5 5 0 0 1-5.39-8.43zM137.3 150.88a5 5 0 0 1-8.49-5.28q2.48-4 5-7.92l0.38-0.59 0.25-0.39 0.12-0.19 0.25-0.38 0.25-0.37 0.11-0.17 0.24-0.37 0.11-0.16 0.12-0.18 0.1-0.15 0.11-0.17 0.12-0.18 0.1-0.14 0.12-0.18 0.1-0.15 0.09-0.14 0.11-0.17v-0.05l0.08-0.13v-0.06l0.1-0.16 0.1-0.15v-0.06l0.08-0.13v-0.05l0.11-0.17v-0.05l0.08-0.12v-0.06l0.09-0.14 0.11-0.17 0.09-0.13v-0.05l0.11-0.17 0.1-0.14v-0.06l0.08-0.12 0.11-0.16v-0.06l0.07-0.11v-0.07l0.08-0.12v-0.06l0.1-0.14v-0.07l0.07-0.1 0.05-0.08 0.11-0.16v-0.06l0.08-0.11v-0.07l0.07-0.11v-0.06l0.11-0.16v-0.07l0.07-0.1v-0.07l0.09-0.13 0.06-0.08 0.08-0.12 0.05-0.07 0.06-0.09 0.05-0.08 0.1-0.15v-0.07l0.07-0.1 0.05-0.08 0.07-0.1 0.06-0.08 0.09-0.14 0.05-0.08 0.07-0.1v-0.07l0.1-0.14 0.05-0.08 0.08-0.11v-0.07l0.07-0.1v-0.07l0.11-0.15v-0.07l0.07-0.1 0.05-0.08 0.08-0.11 0.06-0.09 0.08-0.12 0.05-0.08 0.07-0.1v-0.07l0.11-0.16v-0.06l0.08-0.11v-0.07l0.08-0.11v-0.06l0.11-0.16v-0.07l0.08-0.11v-0.07l0.11-0.15 0.09-0.13v-0.07l0.08-0.11v-0.06l0.11-0.16v-0.06l0.08-0.11v-0.07l0.08-0.11v-0.07l0.1-0.15v-0.06l0.08-0.11v-0.06l0.11-0.16 0.09-0.13v-0.06l0.09-0.12 0.12-0.16v-0.05l0.09-0.12v-0.06l0.1-0.14 0.11-0.15v-0.06l0.09-0.12 0.12-0.17 0.09-0.13v-0.06l0.09-0.13 0.12-0.16v-0.05l0.08-0.12v-0.06l0.1-0.15v-0.05l0.09-0.13v-0.06l0.09-0.13 0.12-0.17 0.1-0.14v-0.05l0.11-0.16 0.12-0.17 0.1-0.14 0.13-0.17 0.11-0.16 0.11-0.15 0.13-0.18 0.11-0.15 0.26-0.35 0.12-0.16 0.13-0.18 0.12-0.16 0.26-0.36 0.12-0.16 0.26-0.36 0.12-0.17 0.14-0.18 0.13-0.18 0.27-0.37 0.13-0.18 0.27-0.37 0.41-0.56q6.65-8.92 13.71-17.5a5 5 0 1 1 7.72 6.36 444.32 444.32 0 0 0-31.14 46.18z m-12.72 454.23a5 5 0 0 1-6.8-1.93l-1.24-2.24-0.22-0.41-0.1-0.19-0.21-0.39-0.09-0.17-0.21-0.38-0.09-0.17-0.1-0.19-0.09-0.16-0.09-0.17-0.1-0.18v-0.05l-0.07-0.13v-0.06l-0.1-0.18-0.08-0.16v-0.06l-0.07-0.12v-0.07l-0.09-0.17v-0.07l-0.06-0.11v-0.08l-0.06-0.11v-0.07l-0.09-0.16v-0.09l-0.05-0.1v-0.09l-0.05-0.1-0.08-0.14-0.05-0.1v-0.18l-0.05-0.1v-0.08l-0.09-0.17v-0.08l-0.05-0.1v-0.08l-0.2-0.37v-0.06l-0.06-0.11v-0.06l-0.12-0.23-0.06-0.12v-0.06l-0.06-0.11-0.12-0.23-0.07-0.13-0.22-0.41-0.07-0.13-0.22-0.42-0.3-0.58-0.23-0.44-0.08-0.15-0.23-0.44-0.31-0.6-0.31-0.61-0.54-1.06-0.31-0.6c-0.57-1.12-1.13-2.23-1.69-3.35l-1.13-2.29-0.22-0.45-0.07-0.15-0.22-0.44-0.07-0.15-0.21-0.44-0.28-0.59-0.2-0.42-0.06-0.13v-0.05l-0.19-0.4-0.06-0.13-0.12-0.25-0.06-0.13-0.06-0.13-0.12-0.24v-0.05l-0.06-0.12v-0.06l-0.18-0.38v-0.07l-0.05-0.11v-0.07l-0.1-0.21v-0.06l-0.05-0.11v-0.07l-0.05-0.11v-0.06l-0.09-0.19v-0.37l-0.06-0.12-0.06-0.13v-0.38l-0.08-0.17v-0.28l-0.06-0.12v-0.07l-0.08-0.16v-0.07l-0.05-0.12v-0.07l-0.07-0.16v-0.08l-0.06-0.14v-0.07l-0.06-0.13v-0.06l-0.08-0.18v-0.05l-0.07-0.14v-0.07l-0.07-0.15-0.09-0.19v-0.06l-0.07-0.15v-0.05l-0.18-0.39-0.08-0.17-0.09-0.2-0.09-0.19-0.08-0.18-0.09-0.21-0.09-0.19-0.19-0.41-0.09-0.19-0.19-0.41Q96.29 559.49 92.14 549a5 5 0 1 1 9.31-3.66 440.91 440.91 0 0 0 25.06 53 5 5 0 0 1-1.93 6.77z m-53.51-232a5 5 0 0 1-5 4.88H66a5 5 0 0 1-4.88-5.1q0.23-9.94 0.89-19.76v-11.99l0.07-0.69q1.31-13.63 3.41-27a5 5 0 0 1 4.93-4.23 5.07 5.07 0 0 1 0.78 0.06 5 5 0 0 1 4.16 5.72 445.67 445.67 0 0 0-4.29 58.11zM68 427.28h0.54a5 5 0 0 1 5 4.46 441.55 441.55 0 0 0 10.16 57.73 5 5 0 0 1-9.71 2.4c-0.2-0.81-0.39-1.6-0.58-2.41v-0.16l-0.11-0.47v-0.19l-0.1-0.44v-0.42l-0.05-0.23v-3.16l-0.1-0.42v-0.18l-0.1-0.43v-0.2l-0.1-0.44v-0.21l-0.1-0.45v-0.22l-0.15-0.68Q67.5 463 65 444.53l-0.09-0.7v-0.22l-0.06-0.46v-0.21l-0.06-0.45v-0.2l-0.06-0.45v-0.2l-0.06-0.44v-7.51l-0.05-0.49v-0.31a5 5 0 0 1 3.38-5.61z m21.25-169.75a5 5 0 1 1-9.58-2.85q5.32-17.87 12.06-35.1l0.17-0.43 0.08-0.21 0.17-0.43 0.08-0.21 0.17-0.42 0.08-0.21 0.09-0.21 0.08-0.19 0.16-0.41 0.07-0.18 0.16-0.4 0.06-0.15v-0.05l0.08-0.19 0.07-0.18v-0.06l0.06-0.14v-0.06l0.08-0.19 0.06-0.14v-0.07l0.05-0.13v-0.06l0.07-0.18v-0.47l0.06-0.16v-0.39l0.05-0.13v-0.49l0.08-0.19v-0.25l0.17-0.41 0.05-0.13 0.17-0.42 0.06-0.14 0.19-0.45 0.26-0.61c1.61-3.86 3.26-7.66 5-11.47a5 5 0 0 1 9.11 4.13 439.72 439.72 0 0 0-19.52 54.43z"  horiz-adv-x="1024" />

    
    <glyph glyph-name="kefuerjirengongfuwumianxing" unicode="&#59732;" d="M621.738667 23.665778c184.547556 2.332444 237.653333 49.152 240.810666 220.302222A85.361778 85.361778 0 0 0 796.444444 327.111111v56.888889c0 36.864 23.381333 68.266667 56.092445 80.213333C840.590222 641.820444 692.679111 782.222222 512 782.222222 331.320889 782.222222 183.438222 641.848889 171.463111 464.213333A85.361778 85.361778 0 0 0 227.555556 384v-56.888889a85.333333 85.333333 0 0 0-170.666667 0v56.888889c0 37.404444 24.092444 69.205333 57.6 80.725333C126.805333 673.564444 300.060444 839.111111 512 839.111111c211.911111 0 385.194667-165.546667 397.511111-374.385778A85.361778 85.361778 0 0 0 967.111111 384v-56.888889a85.333333 85.333333 0 0 0-47.587555-76.544c-2.446222-211.171556-80.896-281.628444-301.994667-283.818667a71.111111 71.111111 0 1 0 4.209778 56.917334z"  horiz-adv-x="1024" />

    
    <glyph glyph-name="iconfontcolor86" unicode="&#58910;" d="M0.008 383.99199999999996c0-282.747582 229.244418-511.992 511.992-511.992s511.992 229.244418 511.992 511.992-229.244418 511.992-511.992 511.992S0.008 666.739582 0.008 383.99199999999996zM641.181982 595.7646910000001l180.877174-180.845174c1.743973-1.679974 3.343948-3.535945 4.687927-5.599913 0.63999-0.975985 1.087983-1.999969 1.615975-3.007953 0.383994-0.783988 0.879986-1.503977 1.199981-2.319964 0.67199-1.599975 1.119983-3.247949 1.519976-4.943923 0.079999-0.335995 0.223997-0.65599 0.287996-1.007984 0.367994-1.871971 0.543992-3.775941 0.575991-5.679911 0-0.255996 0.063999-0.431993 0.063999-0.687989 0-0.335995-0.095999-0.687989-0.111998-1.055984 0.319995-8.431868-2.655959-16.911736-9.055859-23.311636L641.165982 185.67509900000005c-12.335807-12.319808-32.431493-12.15981-44.943298 0.335995-12.527804 12.495805-12.655802 32.591491-0.319995 44.943298l128.733989 128.749988L223.556507 359.70438c-17.439728 0-31.551507 14.335776-31.535507 31.9995-0.047999 17.711723 14.09578 31.9995 31.535507 31.9995L722.716708 423.70338l-126.814019 126.814019c-12.319808 12.335807-12.15981 32.431493 0.335995 44.943298C608.750488 607.9884999999999 628.846174 608.116498 641.181982 595.7646910000001z"  horiz-adv-x="1024" />

    
    <glyph glyph-name="shijian1" unicode="&#58915;" d="M153.6 742.4C-43.885714 544.914286-43.885714 215.771429 153.6 18.285714c95.085714-95.085714 226.742857-146.285714 358.4-146.285714 138.971429 0 263.314286 51.2 358.4 146.285714 95.085714 95.085714 146.285714 226.742857 146.285714 358.4 0 138.971429-51.2 263.314286-146.285714 358.4C775.314286 844.8 650.971429 896 512 896 373.028571 896 248.685714 844.8 153.6 742.4z m43.885714-672.914286C21.942857 245.028571 21.942857 522.971429 197.485714 698.514286 277.942857 778.971429 394.971429 830.171429 512 830.171429c117.028571 0 226.742857-43.885714 314.514286-131.657143 80.457143-80.457143 131.657143-197.485714 131.657143-314.514286 0-117.028571-43.885714-226.742857-131.657143-314.514286-80.457143-80.457143-197.485714-131.657143-314.514286-131.657143-117.028571 0-234.057143 51.2-314.514286 131.657143zM292.571429 259.657143c-21.942857-14.628571-36.571429-36.571429-21.942858-58.514286 14.628571-21.942857 36.571429-29.257143 51.2-14.628571l175.542858 109.714285c7.314286 0 14.628571 7.314286 21.942857 14.628572 14.628571 0 29.257143 14.628571 29.257143 29.257143V640c0 21.942857-21.942857 43.885714-43.885715 43.885714s-43.885714-21.942857-43.885714-43.885714v-277.942857L292.571429 259.657143z"  horiz-adv-x="1024" />

    
    <glyph glyph-name="xiayige1" unicode="&#59062;" d="M801.792 384a69.632 69.632 0 0 0-20.48-47.104L336.896-107.52a65.536 65.536 0 0 0-94.208 0 65.536 65.536 0 0 0 0 94.208L631.808 384 242.688 781.312A65.536 65.536 0 0 0 242.688 875.52a65.536 65.536 0 0 0 94.208 0l444.416-444.416a69.632 69.632 0 0 0 20.48-47.104z"  horiz-adv-x="1024" />

    
    <glyph glyph-name="xiayige2" unicode="&#58913;" d="M510.64 832.536c-246.256 0-446.632-200.376-446.632-446.64 0-246.288 200.376-446.664 446.632-446.664 246.296 0 446.672 200.384 446.672 446.664 0 246.264-200.376 446.64-446.672 446.64z m0-839.768c-216.76 0-393.088 176.36-393.088 393.128 0 216.76 176.328 393.096 393.088 393.096 216.784 0 393.128-176.336 393.128-393.096 0-216.768-176.344-393.128-393.128-393.128z m18.976 622.192a26.752 26.752 0 0 1-37.856 0 26.776 26.776 0 0 1 0-37.856l164.424-164.424H300.52a26.784 26.784 0 0 1-26.768-26.776c0-14.776 12-26.768 26.768-26.768h355.656L491.76 194.672a26.776 26.776 0 0 1 37.864-37.856l210.12 210.168a26.736 26.736 0 0 1 0 37.848L529.616 614.96z"  horiz-adv-x="1024" />

    
    <glyph glyph-name="icon-test1" unicode="&#58933;" d="M896 768H128a32 32 0 0 1-32-32v-576a32 32 0 0 1 32-32h288v64H160V704h704v-512h-256c-8.832 0-16.832-3.584-22.656-9.376l-159.968-160 45.248-45.248L621.248 128H896a32 32 0 0 1 32 32V736a32 32 0 0 1-32 32M560 448a48 48 0 1 1-95.968 0.032A48 48 0 0 1 560 448M240 448a48 48 0 1 1 95.968-0.032A48 48 0 0 1 240 448M784 448a48 48 0 1 1-95.968 0.032A48 48 0 0 1 784 448"  horiz-adv-x="1024" />

    
    <glyph glyph-name="icon-test2" unicode="&#58940;" d="M384 128a64 64 0 1 1 0.032-128.032A64 64 0 0 1 384 128M704 128a64 64 0 1 1 0.032-128.032A64 64 0 0 1 704 128M312.672 384l-51.456 192h560.96l-51.456-192H312.672z m583.36 224a32 32 0 0 1-32 32H244.064L209.824 768H96v-64h64.672l145.728-544H800v64H355.52l-25.664 96H819.84l12.16 45.376 64 238.88-0.768 0.192C895.424 605.664 896 606.72 896 608z"  horiz-adv-x="1024" />

    
    <glyph glyph-name="xiulixian" unicode="&#58919;" d="M168.26888094 364.76529983c82.98833636-82.98833636 211.52898615-97.4797025 310.30055501-37.15518441l18.87247297 11.5144565 15.62876973-15.61472498L840.99396713-4.441526120000049a56.16808041 56.16808041 0 1 1 79.43570509 79.43570506L570.92379976 424.52813596l7.66694203 17.55252697a252.8265659 252.8265659 0 0 1-52.88224533 280.13829477 252.34913776 252.34913776 0 0 1-192.81097585 73.66443575l28.65976187-28.67380424c54.84812946-54.83408716 54.84812946-143.7341158 1e-8-198.58224527l-39.71083013-39.71083256c-54.83408716-54.83408716-143.74815809-54.83408716-198.58224522 0l-28.67380424 28.65976437a252.34913776 252.34913776 0 0 1 73.67847804-192.81097592z m-39.72487489-39.71083016a308.76997458 308.76997458 0 0 0-79.99738698 298.40696147l12.56760881 47.04076696 101.86081184-101.87485416a84.25211817 84.25211817 0 0 1 119.16058001 0l39.71083263 39.72487499a84.25211817 84.25211817 0 0 1 0 119.14653766l-101.87485415 101.87485415 47.04076702 12.55356656a308.76997458 308.76997458 0 0 0 298.42100369-79.99738697 308.98060402 308.98060402 0 0 0 71.83897452-324.3285328L960.1685894 114.71905387000004a112.33615837 112.33615837 0 1 0-158.8714126-158.8573703l-312.88428529 312.88428525c-117.78446233-60.73173466-263.79338531-39.7669993-359.85484315 56.30850085z"  horiz-adv-x="1024" />

    
    <glyph glyph-name="xiayige3" unicode="&#58925;" d="M512 831C264.576 831 64 630.424 64 383s200.576-448 448-448 448 200.576 448 448S759.424 831 512 831z m136.364-469.243l-170.433-192c-11.732-13.217-31.958-14.421-45.175-2.688-13.217 11.733-14.42 31.958-2.688 45.175L581.644 383 430.068 553.757c-11.733 13.216-10.529 33.44 2.688 45.175 13.217 11.732 33.442 10.528 45.175-2.688l170.433-192c5.379-6.06 8.068-13.651 8.068-21.243s-2.689-15.185-8.068-21.244z"  horiz-adv-x="1024" />

    
    <glyph glyph-name="arrow-circle-right" unicode="&#58926;" d="M453.166796 232.99029800000005l137.336939 137.335938a19.405991 19.405991 0 0 1 0 27.295988L453.166796 534.9601620000001a38.599983 38.599983 0 1 0 54.806976 54.805976l191.929914-191.929914a19.405991 19.405991 0 0 0 0-27.295988l-191.929914-191.929914a38.599983 38.599983 0 0 0-54.806976 54.593976m103.429954 583.039738A434.400805 434.400805 0 1 1 944.079576 428.54421 434.827805 434.827805 0 0 1 556.59575 816.243036m-2.131999-942.588577a511.81277 511.81277 0 1 0 469.160789 469.16179 511.81277 511.81277 0 0 0-469.160789-469.16179"  horiz-adv-x="1025" />

    
    <glyph glyph-name="xiaomishangchengFma" unicode="&#58927;" d="M556.65109388-128.8298860299999c-285.25584394 0-517.33451421 232.0786679-517.33451419 517.33451417s232.0786679 517.33451421 517.33451419 517.33451424 517.33451421-232.0786679 517.33451422-517.33451424-232.0786679-517.33451421-517.33451422-517.33451417z m-8.02068899 914.35867673c-218.91671636 0-397.02416256-178.10744615-397.02416255-397.02416256s178.10744615-397.02416256 397.02416255-397.02416252 397.02416256 178.10744615 397.02416018 397.02416252-178.10744615 397.02416256-397.02416018 397.02416256zM556.65109388 901.82879785c283.05015495 0 513.32416969-230.27401475 513.3241697-513.32416971s-230.27401475-513.32416969-513.3241697-513.3241673-513.32416969 230.27401475-513.32416732 513.3241673 230.27401475 513.32416969 513.32416732 513.32416971m-8.02068899-914.3586767c221.13042673 0 401.03450705 179.9040803 401.03450468 401.03450699s-179.9040803 401.03450705-401.03450468 401.03450708-401.03450705-179.9040803-401.03450706-401.03450708 179.9040803-401.03450705 401.03450706-401.03450699m8.02068899 922.3793657c-287.92673476 0-521.34485869-233.41812396-521.34485864-521.34485871s233.41812396-521.34485869 521.34485864-521.34485866 521.34485869 233.41812396 521.34485869 521.34485866-233.41812396 521.34485869-521.34485869 521.34485871z m-8.02068899-914.35867436c-217.0559163 0-393.01381571 175.95789939-393.01381808 393.01381565s175.95789939 393.01381571 393.01381808 393.0138157 393.01381571-175.95789939 393.0138157-393.0138157-175.95789939-393.01381571-393.0138157-393.01381565zM398.1141329 136.39027570999997V601.0529175500001h375.03945031v-108.56004109h-247.15756645v-93.5372895h199.59487362v-108.56806012h-199.59487362v-153.99725113zM769.14323874 597.0425707100001v-100.53934975h-247.15756648v-101.55797854h199.60289494v-100.53934976h-199.60289494v-153.99725113h-119.86119488V597.0425707100001h367.01876136m8.02068896 8.02069132h-383.06816067v-472.67531187h135.90257291v153.99725114h199.60289493v116.58073013h-199.60289493v85.51659815h247.15756642V605.06326203h0.00802134z"  horiz-adv-x="1098" />

    
    <glyph glyph-name="xiuli" unicode="&#58929;" d="M412 231.3c-14.3 0-28.6 1.2-42.9 3.7-50.7 8.8-96.8 32.7-133.3 69.2-37 37-61 83.7-69.5 135.1-8.3 50.3-1.3 101.2 20.4 147.1l9.1 19.3L349.5 452l90.4 90.4-153.7 153.8 19.3 9.1c45.9 21.7 96.8 28.7 147.1 20.4 51.4-8.5 98.2-32.5 135.1-69.5 36.5-36.5 60.4-82.6 69.2-133.3 8.6-49.6 2.2-99.9-18.5-145.5l-27.3 12.4c37.4 82.5 19.5 181.1-44.6 245.2-60 60-149.3 79.5-228.1 51.5l143.9-143.9-132.8-133-144 144c-28-78.8-8.5-168.1 51.5-228.1 64.1-64.1 162.6-82 245.2-44.6l12.4-27.3c-32.5-14.8-67.3-22.3-102.6-22.3zM730.7 44.6c-12.9 0-25.8 4.9-35.6 14.7L497.8 256.6c-5.9 5.9-5.9 15.4 0 21.2 5.9 5.9 15.4 5.9 21.2 0l197.3-197.3c7.9-7.9 20.8-7.9 28.7 0l66.4 66.4c3.8 3.8 5.9 8.9 5.9 14.4 0 5.4-2.1 10.5-5.9 14.4L614.2 372.9c-5.9 5.9-5.9 15.4 0 21.2 5.9 5.9 15.4 5.9 21.2 0l197.3-197.3c9.5-9.5 14.7-22.1 14.7-35.6s-5.2-26.1-14.7-35.6l-66.4-66.4c-9.9-9.7-22.7-14.6-35.6-14.6z"  horiz-adv-x="1024" />

    
    <glyph glyph-name="xiuli1" unicode="&#58930;" d="M412 231.3c-14.3 0-28.6 1.2-42.9 3.7-50.7 8.8-96.8 32.7-133.3 69.2-37 37-61 83.7-69.5 135.1-8.3 50.3-1.3 101.2 20.4 147.1l9.1 19.3L349.5 452l90.4 90.4-153.7 153.8 19.3 9.1c45.9 21.7 96.8 28.7 147.1 20.4 51.4-8.5 98.2-32.5 135.1-69.5 36.5-36.5 60.4-82.6 69.2-133.3 8.6-49.6 2.2-99.9-18.5-145.5l-27.3 12.4c37.4 82.5 19.5 181.1-44.6 245.2-60 60-149.3 79.5-228.1 51.5l143.9-143.9-132.8-133-144 144c-28-78.8-8.5-168.1 51.5-228.1 64.1-64.1 162.6-82 245.2-44.6l12.4-27.3c-32.5-14.8-67.3-22.3-102.6-22.3zM730.7 44.6c-12.9 0-25.8 4.9-35.6 14.7L497.8 256.6c-5.9 5.9-5.9 15.4 0 21.2 5.9 5.9 15.4 5.9 21.2 0l197.3-197.3c7.9-7.9 20.8-7.9 28.7 0l66.4 66.4c3.8 3.8 5.9 8.9 5.9 14.4 0 5.4-2.1 10.5-5.9 14.4L614.2 372.9c-5.9 5.9-5.9 15.4 0 21.2 5.9 5.9 15.4 5.9 21.2 0l197.3-197.3c9.5-9.5 14.7-22.1 14.7-35.6s-5.2-26.1-14.7-35.6l-66.4-66.4c-9.9-9.7-22.7-14.6-35.6-14.6z"  horiz-adv-x="1024" />

    
    <glyph glyph-name="qiye" unicode="&#58931;" d="M774.32 419h-75.096c-20.631 0-37.548 15.498-37.548 34.498 0 19.004 16.917 34.502 37.548 34.502h75.095c20.631 0 37.548-15.498 37.548-34.502 0-19-16.917-34.498-37.548-34.498m0-139h-75.095c-20.631 0-37.548 15.498-37.548 34.502 0 19 16.917 34.498 37.548 34.498h75.095c20.631 0 37.548-15.498 37.548-34.498 0-19.004-16.917-34.502-37.548-34.502m0-138h-75.095c-20.631 0-37.548 15.498-37.548 34.498 0 19.004 16.917 34.502 37.548 34.502h75.095c20.631 0 37.548-15.498 37.548-34.502 0-19-16.917-34.498-37.548-34.498M399.014 557H249.51c-20.537 0-37.376 15.498-37.376 34.502 0 19 16.84 34.498 37.376 34.498h149.505c20.537 0 37.376-15.498 37.376-34.498 0-19.004-16.839-34.502-37.376-34.502m0-138H249.51c-20.537 0-37.376 15.498-37.376 34.498 0 19.004 16.84 34.502 37.376 34.502h149.505c20.537 0 37.376-15.498 37.376-34.502 0-19-16.839-34.498-37.376-34.498m0-139H249.51c-20.537 0-37.376 15.498-37.376 34.502 0 19 16.84 34.498 37.376 34.498h149.505c20.537 0 37.376-15.498 37.376-34.498 0-19.004-16.839-34.502-37.376-34.502m0-138H249.51c-20.537 0-37.376 15.498-37.376 34.498 0 19.004 16.84 34.502 37.376 34.502h149.505c20.537 0 37.376-15.498 37.376-34.502 0-19-16.839-34.498-37.376-34.498m523.653-137.05h-37.334V501.526c0 24.852-19.348 51.19-43.555 58.802l-198.43 62.126c-30.822 9.713-56.681-6.035-56.681-35.174V4.9500000000000455H512V781.361c0 38.762-32.47 59.765-70.973 46.813l-248.013-82.775c-30.235-10.152-54.347-45.24-54.347-78.403V4.9500000000000455h-37.334C80.82 4.9500000000000455 64-10.538999999999987 64-29.524999999999977 64-48.511999999999944 80.82-64 101.333-64h821.334C943.18-64 960-48.511999999999944 960-29.524999999999977c0 18.986-16.82 34.474-37.333 34.474"  horiz-adv-x="1024" />

    
    <glyph glyph-name="xiayige4" unicode="&#58965;" d="M279.68 4.288a40 40 0 1 1 56.576-56.576l408 408a40 40 0 0 1 0 56.576L336.256 820.288a40 40 0 0 1-56.512-56.576L659.456 384 279.68 4.288z"  horiz-adv-x="1024" />

    
    <glyph glyph-name="xiayige5" unicode="&#59134;" d="M512 896C229.2224 896 0 666.7776 0 384s229.2224-512 512-512 512 229.2224 512 512S794.7776 896 512 896z m-147.456-263.8592a24.0896 24.0896 0 0 0 33.8944 1.7664l259.2256-231.3472 2.2016-2.2016a23.6288 23.6288 0 0 0 5.7088-16.3584 23.6288 23.6288 0 0 0-7.9104-18.56l-259.2256-231.3472a24.0896 24.0896 0 0 0-34.0224 1.9456 23.68 23.68 0 0 0 1.92 33.408L606.72 384l-240.384 214.528-2.0992 2.1248a23.68 23.68 0 0 0 0.3328 31.488z"  horiz-adv-x="1024" />

    
    <glyph glyph-name="shouji" unicode="&#58909;" d="M295.541575 710.44607l432.91685 0c25.829272 0 46.961568-24.614607 46.961568-54.697763l0-711.494567c0-30.082132-21.131273-54.698786-46.961568-54.698786L295.541575-110.445046c-25.829272 0-46.961568 24.616654-46.961568 54.698786l0 711.494567C248.580007 685.831462 269.71128 710.44607 295.541575 710.44607L295.541575 710.44607zM450.042391-7.472813c-10.126638 0-18.412348-8.286734-18.412348-18.414395l0-26.878161c0-10.124592 8.286734-18.411325 18.412348-18.411325L566.106804-71.176694c10.128685 0 18.413372 8.287757 18.413372 18.411325l0 26.878161c0 10.127661-8.284687 18.414395-18.413372 18.414395L450.042391-7.472813 450.042391-7.472813zM325.723991 639.681376l0-607.311763 373.546671 0 0 607.311763L325.723991 639.681376z"  horiz-adv-x="1024" />

    
    <glyph glyph-name="mobile1" unicode="&#58883;" d="M764.91-63.301h-505.821c-38.731 0-70.132 31.11-70.132 69.404v755.796c0 38.342 31.402 69.404 70.132 69.404h505.821c38.731 0 70.132-31.061 70.132-69.404v-755.796c0-38.294-31.401-69.404-70.132-69.404zM511.999-14.38c41.303 0 74.839 33.683 74.839 75.325 0 41.546-33.536 75.277-74.839 75.277-41.302 0-74.839-33.731-74.839-75.277 0-41.641 33.538-75.325 74.839-75.325zM785.343 731.904h-546.687v-546.712h546.687v546.712z"  horiz-adv-x="1024" />

    
    <glyph glyph-name="arrow-down" unicode="&#58884;" d="M511.96600000000007 122.91999999999996L959.569 591.998l-50.69400000000002 53.081-396.86299999999994-415.93700000000007L115.12499999999994 645.05l-50.69399999999999-53.04400000000001L511.96600000000007 122.91999999999996z"  horiz-adv-x="1024" />

    
    <glyph glyph-name="gouwuche1" unicode="&#58885;" d="M347.136 112.63999999999999q19.456 0 36.864-7.168t30.72-19.968 20.48-30.208 7.168-36.864-7.168-36.864-20.48-30.208-30.72-20.48-36.864-7.68q-20.48 0-37.376 7.68t-30.208 20.48-20.48 30.208-7.168 36.864 7.168 36.864 20.48 30.208 30.208 19.968 37.376 7.168zM773.12 110.59199999999998q19.456 0 37.376-7.168t30.72-19.968 20.48-30.208 7.68-36.864-7.68-36.864-20.48-30.208-30.72-20.48-37.376-7.68-36.864 7.68-30.208 20.48-20.48 30.208-7.68 36.864 7.68 36.864 20.48 30.208 30.208 19.968 36.864 7.168zM945.152 692.2239999999999q28.672 0 44.544-7.68t22.528-18.944 6.144-24.064-3.584-22.016-12.8-37.888-22.016-62.976-24.064-68.096-17.92-53.248q-13.312-40.96-33.792-56.832t-50.176-15.872l-34.816 0-66.56 0-87.04 0-95.232 0-253.952 0 15.36-92.16 516.096 0q49.152 0 49.152-41.984 0-20.48-9.728-35.328t-38.4-14.848l-49.152 0-95.232 0-117.76 0-119.808 0-98.304 0-56.32 0q-20.48 0-34.304 9.216t-23.04 24.064-14.848 32.256-8.704 32.768q-1.024 6.144-5.632 29.696t-11.264 58.88-14.848 78.848-16.384 87.552q-19.456 103.424-44.032 230.4l-76.8 0q-15.36 0-25.6 7.68t-16.896 18.432-9.216 23.04-2.56 22.528q0 20.48 13.824 33.792t37.376 13.312l22.528 0 20.48 0 25.6 0 34.816 0q20.48 0 32.768-6.144t19.456-15.36 10.24-19.456 5.12-17.408q2.048-8.192 4.096-23.04t4.096-30.208q3.072-18.432 6.144-38.912l700.416 0z"  horiz-adv-x="1024" />

    
    <glyph glyph-name="f11" unicode="&#58886;" d="M370.02499547 512.18303383l284.65275762 0c15.75316235 0 28.49454517-12.64240415 28.49454517-28.39415252 0-7.32583558-2.80958025-13.94750861-7.32583559-18.96431321l-140.7702927-187.82899447c-9.43266728-12.44020486-27.19085468-15.05041379-39.73428016-5.6191605-2.20863833 1.60628242-4.11327074 3.51232881-5.61916051 5.6191605L347.34898213 466.83100715c-9.33086064 12.44161884-6.82104436 30.30019891 5.71955316 39.63247352C358.18714652 510.37738009 364.10607099 512.18303382 370.02499547 512.18303383L370.02499547 512.18303383z"  horiz-adv-x="1024" />

    
    <glyph glyph-name="icon" unicode="&#58888;" d="M512.06539366 328.44931038000004l-143.6497241 143.64726571c-6.0329344 6.03785122-15.82526705 6.03785122-21.85869315 0-6.03834291-6.0329344-6.03834291-15.82526705 0-21.85869313l154.57882485-154.57882484c6.0329344-6.03785122 15.82526705-6.03785122 21.85869314 0l154.57833314 154.57882484c3.01892562 3.01695888 4.52888009 6.97352148 4.52888012 10.92910073s-1.50995449 7.91214185-4.52888012 10.92910071c-6.0329344 6.03785122-15.82526705 6.03785122-21.85869312 0l-143.64923245-143.6472657z"  horiz-adv-x="1024" />

    
    <glyph glyph-name="gouwuche" unicode="&#58889;" d="M376.15625 160.40625q16.03125 0 30.375-5.90625t25.3125-16.453125 16.875-24.890625 5.90625-30.375-5.90625-30.375-16.875-24.890625-25.3125-16.875-30.375-6.328125q-16.875 0-30.796875 6.328125t-24.890625 16.875-16.875 24.890625-5.90625 30.375 5.90625 30.375 16.875 24.890625 24.890625 16.453125 30.796875 5.90625zM727.15625 158.71875q16.03125 0 30.796875-5.90625t25.3125-16.453125 16.875-24.890625 6.328125-30.375-6.328125-30.375-16.875-24.890625-25.3125-16.875-30.796875-6.328125-30.375 6.328125-24.890625 16.875-16.875 24.890625-6.328125 30.375 6.328125 30.375 16.875 24.890625 24.890625 16.453125 30.375 5.90625zM868.90625 637.96875q23.625 0 36.703125-6.328125t18.5625-15.609375 5.0625-19.828125-2.953125-18.140625-10.546875-31.21875-18.140625-51.890625-19.828125-56.109375-14.765625-43.875q-10.96875-33.75-27.84375-46.828125t-41.34375-13.078125l-28.6875 0-54.84375 0-71.71875 0-78.46875 0-209.25 0 12.65625-75.9375 425.25 0q40.5 0 40.5-34.59375 0-16.875-8.015625-29.109375t-31.640625-12.234375l-40.5 0-78.46875 0-97.03125 0-98.71875 0-81 0-46.40625 0q-16.875 0-28.265625 7.59375t-18.984375 19.828125-12.234375 26.578125-7.171875 27q-0.84375 5.0625-4.640625 24.46875t-9.28125 48.515625-12.234375 64.96875-13.5 72.140625q-16.03125 85.21875-36.28125 189.84375l-63.28125 0q-12.65625 0-21.09375 6.328125t-13.921875 15.1875-7.59375 18.984375-2.109375 18.5625q0 16.875 11.390625 27.84375t30.796875 10.96875l18.5625 0 16.875 0 21.09375 0 28.6875 0q16.875 0 27-5.0625t16.03125-12.65625 8.4375-16.03125 4.21875-14.34375q1.6875-6.75 3.375-18.984375t3.375-24.890625q2.53125-15.1875 5.0625-32.0625l577.125 0z"  horiz-adv-x="1024" />

    
    <glyph glyph-name="gouwuche2" unicode="&#58890;" d="M347.136 112.63999999999999q19.456 0 36.864-7.168t30.72-19.968 20.48-30.208 7.168-36.864-7.168-36.864-20.48-30.208-30.72-20.48-36.864-7.68q-20.48 0-37.376 7.68t-30.208 20.48-20.48 30.208-7.168 36.864 7.168 36.864 20.48 30.208 30.208 19.968 37.376 7.168zM773.12 110.59199999999998q19.456 0 37.376-7.168t30.72-19.968 20.48-30.208 7.68-36.864-7.68-36.864-20.48-30.208-30.72-20.48-37.376-7.68-36.864 7.68-30.208 20.48-20.48 30.208-7.68 36.864 7.68 36.864 20.48 30.208 30.208 19.968 36.864 7.168zM945.152 692.2239999999999q28.672 0 44.544-7.68t22.528-18.944 6.144-24.064-3.584-22.016-12.8-37.888-22.016-62.976-24.064-68.096-17.92-53.248q-13.312-40.96-33.792-56.832t-50.176-15.872l-34.816 0-66.56 0-87.04 0-95.232 0-253.952 0 15.36-92.16 516.096 0q49.152 0 49.152-41.984 0-20.48-9.728-35.328t-38.4-14.848l-49.152 0-95.232 0-117.76 0-119.808 0-98.304 0-56.32 0q-20.48 0-34.304 9.216t-23.04 24.064-14.848 32.256-8.704 32.768q-1.024 6.144-5.632 29.696t-11.264 58.88-14.848 78.848-16.384 87.552q-19.456 103.424-44.032 230.4l-76.8 0q-15.36 0-25.6 7.68t-16.896 18.432-9.216 23.04-2.56 22.528q0 20.48 13.824 33.792t37.376 13.312l22.528 0 20.48 0 25.6 0 34.816 0q20.48 0 32.768-6.144t19.456-15.36 10.24-19.456 5.12-17.408q2.048-8.192 4.096-23.04t4.096-30.208q3.072-18.432 6.144-38.912l700.416 0z"  horiz-adv-x="1024" />

    
    <glyph glyph-name="gouwuche11" unicode="&#59023;" d="M384.64648437 174.38085937000005q15.02929689 0 28.47656251-5.53710936t23.73046875-15.4248047 15.8203125-23.33496093 5.53710937-28.4765625-5.53710937-28.4765625-15.8203125-23.33496094-23.73046875-15.8203125-28.4765625-5.93261719q-15.8203125 0-28.87207032 5.93261719t-23.33496093 15.8203125-15.8203125 23.33496094-5.53710938 28.4765625 5.53710938 28.4765625 15.8203125 23.33496093 23.33496093 15.4248047 28.87207032 5.53710937zM713.70898438 172.79882812000005q15.02929689 0 28.87207031-5.53710937t23.73046876-15.42480469 15.82031249-23.33496093 5.93261718-28.4765625-5.93261718-28.4765625-15.82031249-23.33496094-23.73046876-15.8203125-28.87207032-5.93261719-28.4765625 5.93261719-23.33496093 15.8203125-15.8203125 23.33496094-5.93261719 28.4765625 5.93261719 28.4765625 15.8203125 23.33496093 23.33496093 15.42480469 28.4765625 5.53710938zM846.59960938 622.09570313q22.1484375 0 34.40917968-5.93261719t17.40234375-14.63378907 4.74609375-18.58886718-2.76855469-17.00683594-9.88769532-29.26757813-17.00683593-48.64746093-18.58886718-52.60253907-13.84277344-41.13281249q-10.28320313-31.640625-26.10351563-43.90136719t-38.75976562-12.26074219l-26.89453125 0-51.41601563 0-67.23632812 0-73.56445313 0-196.17187499 0 11.86523436-71.19140625 398.67187501 0q37.96875001 0 37.96875-32.43164063 0-15.8203125-7.51464844-27.29003906t-29.66308593-11.46972656l-37.96875 0-73.56445313 0-90.96679688 0-92.54882812 0-75.9375 0-43.50585938 0q-15.8203125 0-26.49902343 7.11914062t-17.79785157 18.58886719-11.46972656 24.91699219-6.72363281 25.3125q-0.79101563 4.74609375-4.35058594 22.93945313t-8.70117187 45.48339843-11.46972657 60.90820313-12.65625 67.63183593q-15.02929689 79.89257813-34.01367187 177.97851563l-59.32617188 0q-11.86523438 0-19.77539063 5.93261719t-13.0517578 14.23828125-7.11914063 17.79785156-1.97753906 17.40234375q0 15.8203125 10.67871093 26.10351562t28.87207032 10.28320313l17.40234375 0 15.82031249 0 19.77539063 0 26.89453125 0q15.8203125 0 25.3125-4.74609375t15.02929688-11.86523438 7.91015625-15.02929687 3.95507811-13.44726563q1.58203125-6.328125 3.16406251-17.79785156t3.1640625-23.33496094q2.37304688-14.23828125 4.74609375-30.05859376l541.0546875 0z"  horiz-adv-x="1024" />

    
    <glyph glyph-name="arrow-left" unicode="&#59001;" d="M759.54231453 557.9165782800001l45.00523567-43.4788227-302.82689094-304.35253143-302.82689095 304.35253143 45.00523567 43.47882271 257.82242775-256.29678726z"  horiz-adv-x="1024" />

    
    <glyph glyph-name="arrow-left1" unicode="&#58891;" d="M759.54231453 557.9165782800001l45.00523567-43.4788227-302.82689094-304.35253143-302.82689095 304.35253143 45.00523567 43.47882271 257.82242775-256.29678726z"  horiz-adv-x="1024" />

    
    <glyph glyph-name="download" unicode="&#58917;" d="M815.588 686.143c81.631-81.27 123.891-184.212 127.142-308.825-3.251-118.835-45.511-218.164-127.142-298.712-81.27-80.547-184.212-122.447-308.825-125.697-118.835 3.251-218.164 45.15-298.712 125.697-80.547 80.547-122.447 179.877-125.697 298.712 3.251 124.253 45.15 227.556 125.697 308.825 80.547 81.631 179.877 123.891 298.712 127.142 124.614-3.251 227.556-45.511 308.825-127.142zM666.413 335.057c-3.973 8.308-13.364 12.642-28.896 12.642h-89.577l0 268.371c0 5.057-1.445 9.391-4.696 13.003s-7.224 5.418-12.642 5.418h-36.481c-4.334 0-8.669-1.806-11.92-5.418-3.612-3.612-5.418-7.946-5.418-13.003v-268.371h-89.577c-15.532 0-24.923-4.334-28.896-12.642-3.973-8.308-1.445-18.421 7.585-29.98l113.417-148.092c9.752-11.558 20.588-17.338 32.869-17.338s23.117 5.779 32.869 17.338l113.417 148.092c9.391 11.558 11.92 21.672 7.946 29.98z"  horiz-adv-x="1024" />

    
    <glyph glyph-name="xiazai3" unicode="&#59209;" d="M511.756453-0.592238c-212.073046 0-383.998721 171.920558-383.998721 383.99872s171.925674 383.998721 383.998721 383.998721S895.755174 595.483622 895.755174 383.406482 723.8295-0.592238 511.756453-0.592238z m95.999425 383.99872V575.405331H415.757029v-191.998849H272.170796l239.58668-239.58668 239.586681 239.58668H607.755878z"  horiz-adv-x="1024" />

    
    <glyph glyph-name="xiazai" unicode="&#58903;" d="M763.87328 360.59648l-250.52672-287.06816-250.5216 287.06816h501.04832zM432.11776 659.44576h153.06752v-328.00256H432.11776V659.44576zM511.62624 818.00192c-241.58208 0-437.43232-195.84-437.43232-437.42208s195.84-437.43232 437.43232-437.43232c241.58208 0 437.42208 195.84 437.42208 437.43232 0 241.57184-219.27424 437.42208-437.42208 437.42208z m0-834.85696c-219.4944 0-397.42976 177.93536-397.42976 397.42976s177.93536 397.42464 397.42976 397.42464c198.20032 0 397.42464-177.9456 397.42464-397.42464-0.00512-219.4944-177.94048-397.42976-397.42464-397.42976z"  horiz-adv-x="1024" />

    
    <glyph glyph-name="xiazai1" unicode="&#58907;" d="M512-25.6c226.2272 0 409.6 183.3728 409.6 409.6S738.2272 793.6 512 793.6 102.4 610.2272 102.4 384s183.3728-409.6 409.6-409.6z m0-102.4C229.2224-128 0 101.2224 0 384S229.2224 896 512 896s512-229.2224 512-512-229.2224-512-512-512z m102.4 537.6h117.4016a25.6 25.6 0 0 0 18.0992-43.6992l-219.8016-219.8016a25.6 25.6 0 0 0-36.1984 0l-219.8016 219.8016A25.6 25.6 0 0 0 292.1984 409.6H409.6v179.2a25.6 25.6 0 0 0 25.6 25.6h153.6a25.6 25.6 0 0 0 25.6-25.6v-179.2z"  horiz-adv-x="1024" />

    
    <glyph glyph-name="xiazai2" unicode="&#58897;" d="M512 896a512 512 0 1 1 512-512A512 512 0 0 1 512 896z m242.629-567.991L559.634 133.014a51.534 51.534 0 0 0-44.013-24.513h-2.507a50.42 50.42 0 0 0-37.049 14.763l-205.58 205.58a50.81 50.81 0 1 0 71.87 71.87L463.53 279.539v329.54a52.37 52.37 0 0 0 104.461 0v-324.526l115.883 116.16a50.81 50.81 0 0 0 71.87-71.869z"  horiz-adv-x="1024" />

    
    <glyph glyph-name="i" unicode="&#58949;" d="M504.385-77.041c-251.595 0-455.558 203.844-455.558 455.44S252.789 833.996 504.385 833.996c251.556 0 455.478-204 455.478-455.597S755.94-77.04 504.385-77.04z m0 956.596c-276.764 0-501.079-224.353-501.079-501.156 0-276.645 224.315-501 501.079-501 276.684 0 501.038 224.354 501.038 501 0 276.803-224.354 501.156-501.038 501.156z m49.825-250.343c-17.692 0-32.878-5.792-45.481-17.221-12.682-11.43-18.984-25.207-18.984-41.333 0-16.126 6.303-29.903 18.984-41.176 12.603-11.429 27.79-17.065 45.481-17.065 17.653 0 32.8 5.636 45.325 17.065 12.525 11.273 18.827 25.05 18.827 41.176 0 16.127-6.302 29.904-18.827 41.333s-27.672 17.221-45.325 17.221z m17.104-456.066c-13.974 0-23.799 2.192-29.472 6.575-5.637 4.541-8.493 12.839-8.493 25.05 0 5.01 0.86 12.213 2.662 21.763 1.722 9.549 3.677 18.005 5.869 25.362l26.929 92.685c2.584 8.454 4.424 17.691 5.403 27.869 0.977 10.176 1.486 17.378 1.486 21.45 0 19.413-7.084 35.225-21.175 47.437-14.09 12.211-34.13 18.318-60.08 18.318-14.405 0-29.748-2.505-45.912-7.515-16.126-4.854-33.073-10.96-50.765-18.004l-7.202-28.652c5.205 2.035 11.546 3.914 18.826 6.106 7.359 2.192 14.56 3.288 21.487 3.288 14.287 0 23.877-2.505 28.927-7.045 5.01-4.697 7.552-12.995 7.552-24.894 0-6.576-0.82-13.778-2.465-21.762-1.643-7.985-3.679-16.44-6.105-25.207l-27.008-92.998c-2.426-9.707-4.149-18.474-5.244-26.145a163.63 163.63 0 0 1-1.606-22.859c0-18.944 7.241-34.757 21.762-47.125 14.483-12.369 34.875-18.631 60.982-18.631 17.065 0 32.016 2.192 44.894 6.575 12.878 4.226 30.1 10.646 51.706 18.787l7.2 28.651c-3.717-1.566-9.706-3.6-17.966-5.95-8.296-2.033-15.655-3.129-22.192-3.129z"  horiz-adv-x="1024" />

    
    <glyph glyph-name="Heart" unicode="&#58882;" d="M1067.405193 803.247836a312.195122 312.195122 0 0 1-443.719906 0l-43.606609-43.606609-43.606609 43.606609A313.806452 313.806452 0 0 1 92.752164 359.527931l487.326514-487.326515 487.326515 487.326515a312.195122 312.195122 0 0 1 0 443.719905"  horiz-adv-x="1160" />

    
    <glyph glyph-name="bofang" unicode="&#59110;" d="M920.789333 455.822222l-738.133333 426.666667c-38.4 22.755556-89.6 9.955556-110.933333-29.866667-7.111111-12.8-11.377778-27.022222-11.377778-41.244444v-854.755556c0-45.511111 35.555556-82.488889 81.066667-82.488889 14.222222 0 28.444444 4.266667 41.244444 11.377778l740.977778 426.666667c38.4 22.755556 51.2 73.955556 28.444444 112.355555-7.111111 12.8-17.066667 24.177778-31.288889 31.288889z"  horiz-adv-x="1024" />

    
    <glyph glyph-name="more" unicode="&#58912;" d="M889.26300001 464.842c0 0 0 0 0 0-44.64800001 0-80.842-36.194-80.842-80.842 0-44.64800001 36.194-80.842 80.842-80.842 0 0 0 0 0 0 44.64800001 0 80.842 36.194 80.842 80.842 0 44.64800001-36.194 80.842-80.842 80.842zM512 464.84199999c0 0 0 0 0 0-44.64800001 0-80.842-36.194-80.84199999-80.84199999 0-44.64800001 36.194-80.842 80.84199999-80.84199999 0 0 0 0 0 0 44.64800001 0 80.842 36.194 80.84199999 80.84199999 0 44.64800001-36.194 80.842-80.84199999 80.84199999zM134.73699999 464.842c0 0 0 0 0 0-44.64800001 0-80.842-36.194-80.842-80.842 0-44.64800001 36.194-80.842 80.842-80.842 0 0 0 0 0 0 44.64800001 0 80.842 36.194 80.842 80.842 0 44.64800001-36.194 80.842-80.842 80.842z"  horiz-adv-x="1024" />

    
    <glyph glyph-name="xiaoxi" unicode="&#58920;" d="M610.13333333-72.70399999999995c-61.713067 0-120.558933 8.328533-176.674133 22.186667L217.60000033-128l-16.7936 190.941867C91.44320033 151.55200000000002 21.33333333 276.13866700000005 21.33333333 411.648 21.33333333 680.1408 284.84266633 896 610.13333333 896c325.2224 0 588.8-215.8592 588.8-484.352 0-268.424533-263.509333-484.283733-588.8-484.283733z m0 913.408C315.69920033 840.704 77.38026633 649.6256 77.38026633 411.579733c0-130.048 72.9088-246.306133 185.070934-323.7888l11.195733-132.846933 151.415467 55.364267c58.914133-16.5888 120.558933-27.648 185.070933-27.648 294.434133 0 532.753067 190.941867 532.753067 428.919466 0 238.045867-238.318933 428.987733-532.753067 428.987734zM635.73333333 418.133333m-68.266667 0a68.266667 68.266667 0 1 1 136.533334 0 68.266667 68.266667 0 1 1-136.533334 0ZM840.53333333 418.133333m-68.266667 0a68.266667 68.266667 0 1 1 136.533334 0 68.266667 68.266667 0 1 1-136.533334 0ZM430.93333333 418.133333m-68.266667 0a68.266667 68.266667 0 1 1 136.533334 0 68.266667 68.266667 0 1 1-136.533334 0Z"  horiz-adv-x="1228" />

    
    <glyph glyph-name="paopao" unicode="&#58939;" d="M512.192 14.656c169.664 0 307.2 140.416 307.2 313.6 0 173.184-137.536 313.6-307.2 313.6-169.6 0-307.2-140.416-307.2-313.6 0-173.184 137.6-313.6 307.2-313.6zM444.8 713.984l49.024 83.456a21.952 21.952 0 0 0 37.824 0l49.28-83.712C760 680.64 896 520.512 896 328 896 111.488 724.096-64 512-64s-384 175.488-384 392c0 193.088 136.704 353.536 316.736 385.984zM391.488 252.544a49.92 49.92 0 0 0-49.344 50.368 49.92 49.92 0 0 0 49.344 50.432 49.92 49.92 0 0 0 49.408-50.432 49.92 49.92 0 0 0-49.408-50.368z m242.176 0a49.92 49.92 0 0 0-49.344 50.432 49.92 49.92 0 0 0 49.344 50.368 49.92 49.92 0 0 0 49.408-50.368 49.92 49.92 0 0 0-49.408-50.432zM454.72 383.488a16.64 16.64 0 0 0-16.448 16.768 16.64 16.64 0 0 0 16.448 16.832 16.64 16.64 0 0 0 16.448-16.832 16.64 16.64 0 0 0-16.448-16.768z m114.432 0.064a16.64 16.64 0 0 0-16.512 16.832 16.64 16.64 0 0 0 16.512 16.768 16.64 16.64 0 0 0 16.448-16.768 16.64 16.64 0 0 0-16.448-16.832z m136.384-109.632l47.744 12.8a13.696 13.696 0 0 0 16.768-9.728l0.128-0.576a13.696 13.696 0 0 0-9.664-16.768l-47.68-12.8a13.696 13.696 0 0 0-16.832 9.728l-0.128 0.512a13.696 13.696 0 0 0 9.664 16.832z m6.08-47.232l47.744-12.8c7.296-1.92 11.648-9.472 9.664-16.832l-0.128-0.512a13.696 13.696 0 0 0-16.832-9.728l-47.68 12.8a13.696 13.696 0 0 0-9.664 16.768l0.128 0.576a13.696 13.696 0 0 0 16.768 9.728zM321.664 273.92c7.296-1.92 11.648-9.472 9.664-16.832l-0.128-0.512a13.696 13.696 0 0 0-16.832-9.728l-47.68 12.8a13.696 13.696 0 0 0-9.664 16.768l0.128 0.576a13.696 13.696 0 0 0 16.768 9.728l47.744-12.8z m-8.448-47.232a13.696 13.696 0 0 0 16.832-9.728l0.128-0.576a13.696 13.696 0 0 0-9.728-16.768l-47.68-12.8A13.696 13.696 0 0 0 256 196.544l-0.128 0.512a13.696 13.696 0 0 0 9.664 16.832l47.68 12.8z m189.44 5.76l-20.48 23.744a13.696 13.696 0 0 0 10.432 22.656h40.96a13.696 13.696 0 0 0 10.368-22.656l-20.48-23.808a13.696 13.696 0 0 0-20.736 0z"  horiz-adv-x="1024" />

    
    <glyph glyph-name="redian" unicode="&#58921;" d="M845.702204 613.212981l-0.138374-0.747218 0.138374 0.747218M287.004236 521.056045l0.083025-0.359772-0.083025 0.359772m-66.696161-7.084738a9.769189 9.769189 0 0 1-8.634524-4.510985c-2.8505-5.036806-69.020841-122.433119-69.02084-230.530715 0-49.759211 9.160344-96.861645 27.259634-139.951239a324.071389 324.071389 0 0 1 75.386035-109.592032c66.474763-63.458215 159.794039-98.411431 262.799479-98.411432 104.970348 0 200.088484 35.008566 267.780936 98.605155a323.933015 323.933015 0 0 1 76.659074 109.592032c18.376038 43.034245 27.70243 90.053655 27.70243 139.757516 0 84.9615-11.2913 126.833405-52.526686 194.664232l-27.121261 44.69473h4.206563c-26.06962 62.240526-18.984882 103.58661-18.597436 105.717567a9.049645 9.049645 0 0 1-3.37632 8.855922 9.769189 9.769189 0 0 1-9.160344 1.16234l-0.276748-0.138374c-2.186306-0.968616-54.629968-25.184028-75.496733-97.249092-1.522112-5.258204-2.961199-10.737805-4.234238-16.217406-3.597718-15.165766-16.521829-26.457066-32.185741-28.089877a37.084173 37.084173 0 0 0-37.416269 20.866765l-0.138374 0.276748C560.154075 650.103431 585.531826 808.181635 588.659073 825.755105l0.110699 0.691869a8.994296 8.994296 0 0 1-2.822825 8.274752 9.852213 9.852213 0 0 1-8.911271 1.964907c-0.332097-0.083024-45.884745-13.117834-95.754655-53.882749-64.980326-53.024832-106.630834-126.252235-123.816857-217.606604-6.697291-35.562061-12.536664-93.014854-2.26933-164.858519a36.586027 36.586027 0 0 0-22.361202-38.910707c-15.497863-6.420543-33.486454-1.68816-43.726114 11.512699a294.376376 294.376376 0 0 0-14.916694 21.226537c-25.322401 39.436527-43.366342 104.610576-45.663346 113.134401a9.188019 9.188019 0 0 1-7.527534 6.669616H220.308075M508.125534-128c-118.530979 0-226.573225 40.820265-304.228589 114.98861C125.964833 61.406028 83.041287 165.075663 83.041287 278.901933c0 121.326129 68.827117 245.613457 76.659073 259.395485 13.283883 23.523542 39.851648 37.028823 67.664778 34.316697l0.885592-0.110699c27.951503-3.597718 50.700152-23.246795 57.895589-50.091308l0.166048-0.553495c0.940942-3.597718 2.435378-8.855922 4.427961-15.221116 1.10699 22.139805 3.597718 45.497298 8.081029 69.325263C346.837058 830.84726 552.21142 891.012179 560.928968 893.475232a70.210855 70.210855 0 0 0 65.257074-15.221116 67.803151 67.803151 0 0 0 21.171188-62.904719c-1.328388-7.582883-7.223111-44.334959-6.641941-94.703014 0.415121-33.901576 4.01284-79.094452 16.604853-125.22827 33.071333 64.648229 84.546379 89.168063 91.824839 92.378335 22.970047 10.23966 50.617128 6.918689 70.542953-8.523825l0.110699-0.083024a67.692452 67.692452 0 0 0 25.184027-65.312424c-2.103281-15.387164 2.324679-57.895589 33.901576-109.86878l27.121261-44.667055h-2.407704c27.287309-55.570909 36.309279-104.389178 36.309279-180.411733 0-113.936969-43.670764-217.661953-122.931264-292.107046C738.102754-87.235085 628.427697-128 508.125534-128M498.716117 364.693675c-10.516407-5.341228-35.811134-26.374042-60.469341-61.437957-17.324397-24.630533-46.382891-73.836248-46.161492-126.473634 0.221398-58.670482 47.821978-106.354086 106.077338-106.354086a106.271062 106.271062 0 0 1 106.077339 106.215712c0 37.084173-16.494154 82.747519-45.275901 125.311294-24.879605 36.807425-50.035958 57.840239-60.275617 62.738671zM498.162622 10.373778a164.581772 164.581772 0 0 0-117.340964 48.70757A166.214583 166.214583 0 0 0 332.114088 176.533011c-0.332097 81.751228 49.067342 160.624282 95.367208 207.200896C455.045353 411.436338 478.845643 425.495114 498.162622 425.495114c43.698439 0 92.156936-63.845661 105.994314-83.384039 22.416552-31.77062 60.05422-95.477907 60.05422-165.467365C664.211156 84.957245 589.710714 10.373778 498.162622 10.373778z"  horiz-adv-x="1024" />

    
    <glyph glyph-name="tuijian" unicode="&#58880;" d="M197.9 699.1v-709h0.2L513 127.89999999999998l314.9-137.8h0.3v709H197.9zM769 80.39999999999998L536.6 182.10000000000002c-7.5 3.3-15.6 5-23.7 5s-16.2-1.7-23.7-5L257 80.39999999999998V640h512v-559.6zM418.7 356.6C398.8 282.9 403.8 246 433.8 246c18.1 0 45.1 13.4 81.3 40.1 36.1-25 63.2-37.5 81.2-37.5 31.1 0 35.5 37 13.1 111.1 92.6 76.1 79.9 114.7-38.1 116-20.4 57.2-40.4 85.8-60 85.8-19.7 0-39.1-29.2-58-87.7-117.8-5-129.4-44.1-34.6-117.2z m36.8 68.1c20.6 0.8 38.4 14.4 44.8 34 4.4 13.7 8.4 24.2 11.9 32.4 3.7-8 8.1-18.4 12.8-31.8 6.9-19.4 25.2-32.5 45.9-32.7 15.8-0.2 27.7-1 36.5-2.2-6.5-6.8-15.8-15.6-29.2-26.5-15.3-12.6-21.6-33.3-15.9-52.3 4.7-15.6 7.6-27.6 9.3-36.9-7.5 4.2-16.9 10-28.5 18.1-8.4 5.8-18.2 8.7-28 8.7-10.3 0-20.6-3.2-29.3-9.6-11.3-8.4-20.5-14.5-27.9-18.8 1.5 9.3 4 21.4 8.3 37 5.1 19.2-1.7 39.6-17.5 51.8-13.7 10.6-23.3 19.1-29.9 25.7 8.8 1.1 20.8 2.4 36.7 3.1z"  horiz-adv-x="1024" />

    
    <glyph glyph-name="wode1-copy" unicode="&#58881;" d="M413.393 310.044c-3.793 0-11.378 5.69-11.378 5.69-51.2 30.34-83.437 70.162-106.193 134.636l-1.896 3.793c-1.896 11.378 3.793 20.86 13.274 24.652 1.896 0 3.793 1.896 5.689 1.896 7.585 0 15.17-3.792 18.963-11.378l1.896-3.792c18.963-54.993 45.511-87.23 89.126-113.778 3.793-1.896 9.482-5.689 11.378-11.378 3.792-11.378-1.896-22.755-13.274-26.548-1.897 0-3.793-1.896-5.69-1.896l-1.895-1.897zM301.51 488.296c-9.481 0-18.963 5.69-20.86 15.17-3.792 11.378 1.897 24.653 15.171 28.445 1.897 0 3.793 1.896 7.585 1.896 9.482 0 18.963-5.688 20.86-15.17 1.896-5.689 1.896-11.378-1.897-17.067-1.896-5.689-7.585-9.481-13.274-11.377-3.792-1.897-5.689-1.897-7.585-1.897zM694.044 217.12599999999998c98.608 60.681 166.875 170.667 166.875 293.926 0 191.526-157.393 347.022-348.919 347.022S163.081 702.578 163.081 511.052c0-125.156 66.37-233.245 166.875-293.926L187.733 36.97799999999995c-9.481-17.067-11.377-37.926-11.377-47.408 0-53.096 28.444-79.644 70.163-79.644H777.48c41.719 0 70.163 26.548 70.163 79.644 0 18.963-3.792 34.134-11.377 47.408L694.044 217.12599999999998zM227.556 511.052C227.556 666.548 354.607 793.6 512 793.6s284.444-127.052 284.444-282.548S669.393 228.50400000000002 512 228.50400000000002 227.556 355.55600000000004 227.556 511.052zM637.156 188.68100000000004C597.333 173.51099999999997 555.615 164.02999999999997 512 164.02999999999997s-87.23 9.481-125.156 24.651L252.207 14.22199999999998c-1.896-5.689-1.896-7.585-1.896-13.274 0-13.274 9.482-24.652 24.652-24.652H752.83c15.17 0 24.651 13.274 24.651 24.652 0 5.689 0 9.482-1.896 13.274l-138.43 174.46z"  horiz-adv-x="1024" />

    
    <glyph glyph-name="icon-test" unicode="&#58968;" d="M589.088 105.376L310.464 384l278.624 278.624 45.248-45.248L400.96 384l233.376-233.376z"  horiz-adv-x="1024" />

    
    <glyph glyph-name="dingdanguanli" unicode="&#58916;" d="M928-128h-832a32 32 0 0 0-32 32v896a32 32 0 0 0 32 32h128a32 32 0 0 0 0-64H128v-832h768V768h-96a32 32 0 0 0 0 64h128a32 32 0 0 0 32-32v-896a32 32 0 0 0-32-32zM672 704h-320a32 32 0 0 0-32 32v128a32 32 0 0 0 32 32h320a32 32 0 0 0 32-32v-128a32 32 0 0 0-32-32zM384 768h256V832H384zM736 512h-256a32 32 0 0 0 0 64h256a32 32 0 0 0 0-64zM736 320h-256a32 32 0 0 0 0 64h256a32 32 0 0 0 0-64zM352 512h-64a32 32 0 0 0 0 64h64a32 32 0 0 0 0-64zM352 320h-64a32 32 0 0 0 0 64h64a32 32 0 0 0 0-64zM736 128h-256a32 32 0 0 0 0 64h256a32 32 0 0 0 0-64zM352 128h-64a32 32 0 0 0 0 64h64a32 32 0 0 0 0-64z"  horiz-adv-x="1024" />

    
    <glyph glyph-name="shouyex" unicode="&#58901;" d="M888.832 305.92h-31.232a30.0544 30.0544 0 0 0-29.2864 29.2864c0 15.616-642.4064-29.2864-658.0224-29.2864h-39.0144c-33.2288 0-60.5696 19.456-74.24 48.7936-11.6736 31.232-5.8368 64.4096 17.6128 87.8592l378.7776 378.7776c31.232 31.232 82.0224 31.232 113.2544 0l378.7776-378.7776c23.4496-23.4496 29.2864-56.6272 17.5616-87.8592-13.6704-29.2864-40.96-48.7936-74.1888-48.7936zM381.184-76.8H246.4768a108.3392 108.3392 0 0 0-107.4176 107.3664v292.864c0 15.6672 13.6704 29.3376 29.2864 29.3376 10.4448 0 81.408-123.648 212.8384-370.9952 15.616 0 29.2864-13.6704 29.2864-29.2864a30.0544 30.0544 0 0 0-29.2864-29.2864z m243.3536 10.5984a30.72 30.72 0 0 0-7.1168-0.8192 30.0544 30.0544 0 0 0-29.2864 29.2864v283.136h-156.16v-283.136a30.0544 30.0544 0 0 0-29.3376-29.2864 28.7744 28.7744 0 0 0-29.2864 29.2864l-205.0048 356.8128c0 27.4944 538.0096 50.3296 666.8288 32.768a28.5696 28.5696 0 0 0 16.5888 5.4272c15.616 0 29.2864-13.6704 29.2864-29.2864v-297.4208A107.0592 107.0592 0 0 0 773.632-76.8h-126.9248a29.4912 29.4912 0 0 0-22.1696 10.5984z"  horiz-adv-x="1024" />

    
    <glyph glyph-name="tuichu-" unicode="&#58922;" d="M712.9-16H247.1C188.3-16 144 45 144 125.9V642.1C144 723 188.3 784 247.1 784h465.8c26.5 0 48-21.5 48-48s-21.5-48-48-48H252.1c-4.4-5.4-12.1-21-12.1-45.9v-516.3c0-24.9 7.7-40.5 12.1-45.8h460.8c26.5 0 48-21.5 48-48s-21.5-48-48-48zM862.4 336H417.6c-26.5 0-48 21.5-48 48s21.5 48 48 48h444.8c26.5 0 48-21.5 48-48s-21.5-48-48-48zM682.5 156.1c-12.3 0-24.6 4.7-33.9 14.1-18.8 18.8-18.8 49.1 0 67.9L828.5 418c18.8 18.8 49.1 18.8 67.9 0s18.8-49.1 0-67.9l-180-179.9c-9.3-9.4-21.6-14.1-33.9-14.1zM862.4 336c-12.3 0-24.6 4.7-33.9 14.1L648.6 529.9c-18.8 18.8-18.8 49.1 0 67.9s49.1 18.8 67.9 0l179.9-179.9c18.8-18.8 18.8-49.1 0-67.9-9.4-9.3-21.7-14-34-14z"  horiz-adv-x="1024" />

    
    <glyph glyph-name="weibiaoti1" unicode="&#58924;" d="M897.138688 631.349248 109.338624 631.349248c-41.85088 0-75.776-33.92512-75.776-75.776l0-491.52c0-41.85088 33.92512-75.776 75.776-75.776l787.800064 0c41.85088 0 75.776 33.92512 75.776 75.776l0 491.52C972.914688 597.424128 938.98752 631.349248 897.138688 631.349248zM503.236608 83.167232c-125.17376 0-226.646016 101.474304-226.646016 226.646016 0 125.17376 101.472256 226.646016 226.646016 226.646016 125.175808 0 226.646016-101.472256 226.646016-226.646016C729.884672 184.641536 628.412416 83.167232 503.236608 83.167232zM503.238656 309.813248m-157.507584 0a76.908 76.908 0 1 0 315.015168 0 76.908 76.908 0 1 0-315.015168 0ZM633.673728 699.385856c-4.907008 10.139648-18.13504 18.434048-29.39904 18.434048l-202.072064 0c-11.264 0-24.49408-8.296448-29.39904-18.434048L329.201664 609.28c-4.907008-10.139648 0.29696-18.434048 11.56096-18.434048l324.952064 0c11.264 0 16.46592 8.296448 11.56096 18.434048L633.673728 699.385856zM585.158656 673.445888c0-2.627584-9.216-4.777984-20.48-4.777984l-122.88 0c-11.264 0-20.48 2.1504-20.48 4.777984 0 2.629632 9.216 4.777984 20.48 4.777984l122.88 0C575.942656 678.22592 585.158656 676.07552 585.158656 673.445888z"  horiz-adv-x="1024" />

    
    <glyph glyph-name="htmal5icon06" unicode="&#58914;" d="M424.319032 10.306996 424.319032 275.876444 601.364307 275.876444 601.364307 10.306996 822.671669 10.306996 822.671669 364.39857 955.455881 364.39857 512.841158 762.75223 70.226434 364.39857 203.01167 364.39857 203.01167 10.306996Z"  horiz-adv-x="1024" />

    
    <glyph glyph-name="wodedangxuan" unicode="&#58887;" d="M961.72259555-133.29749332999995H59.94723555c-18.64135111 0-37.28270222 9.32067555-48.93354666 23.30168888-11.65084445 16.31118222-16.31118222 34.95253333-11.65084444 53.59388445 46.60337778 237.67722667 240.00739555 414.77006222 473.02428444 433.41141333 78.06065778 0 162.52928-9.90321778 246.99790222-44.27320888 24.46677333-9.90321778 32.62236445-16.31118222 46.60337778-23.3016889 135.14979555-76.89557333 228.35655111-209.7152 258.64874666-365.83651555 4.66033778-18.64135111 0-37.28270222-13.98101333-53.59388445-11.65084445-13.98101333-30.29219555-23.30168889-48.93354667-23.30168888zM61.11232-95.43224888999998c-7.57304889 0-14.56355555 2.91271111-18.64135111 8.15559111-0.58254222 0.58254222-0.58254222 1.16508445-1.16508444 1.74762667-5.82542222 5.82542222-6.40796445 15.72864-5.24288 21.55406222 43.10812445 221.36604445 224.27875555 387.39057778 440.98446222 403.11921778h17.47626666c104.27505778 0 204.47232-32.62236445 253.40586667-63.49710222C876.08888889 198.75157333000004 961.72259555 78.16533332999995 988.51953778-63.974968890000014c1.16508445-8.15559111-0.58254222-15.72864-6.40796445-23.30168889-4.07779555-5.24288-11.06830222-8.15559111-18.64135111-8.15559111H61.11232zM494.52373333 325.16323554999997c101.36234667 0 198.64689778-31.45728 245.83281778-61.16693333h0.58254222c124.66403555-73.98286222 207.38503111-191.07384889 233.01688889-329.71889777 0.58254222-2.91271111 0.58254222-6.99050667-4.07779555-12.23338667-0.58254222-1.16508445-3.49525333-2.33016889-6.99050667-2.33016889H61.11232c-3.49525333 0-6.40796445 1.16508445-6.99050667 2.33016889-0.58254222 1.16508445-1.74762667 2.33016889-2.91271111 2.91271111-1.16508445 1.16508445-2.33016889 4.66033778-1.16508444 8.73813333 41.94304 214.95808 217.28824889 375.73973333 427.58599111 391.46837333 5.24288-0.58254222 11.06830222 0 16.89372444 0m0 29.12711112c-5.82542222 0-12.23338667 0-18.05880888-0.58254222C252.76871111 337.39662222000004 66.3552 167.29429332999996 22.08199111-61.06225777999998c-2.33016889-11.65084445 0-25.63185778 9.32067556-34.95253333 6.99050667-9.32067555 18.64135111-13.98101333 30.29219555-13.98101334H963.47022222c11.65084445 0 23.30168889 4.66033778 30.29219556 13.98101334 6.99050667 9.32067555 11.65084445 20.97152 9.32067555 34.95253333-27.96202667 149.13080889-116.50844445 271.46467555-246.99790222 349.52533333-49.51608889 30.87473778-150.87843555 65.82727111-261.56145778 65.82727112zM512 356.03797333c-146.80064 0-267.96942222 121.16878222-267.96942222 267.96942222S365.19936 891.97681778 512 891.97681778s267.96942222-121.16878222 267.96942222-267.96942223S658.80064 356.03797333 512 356.03797333zM512 393.90321778c-126.99420445 0-230.10417778 103.10997333-230.10417778 230.10417777S385.00579555 854.11157333 512 854.11157333s230.10417778-103.10997333 230.10417778-230.10417778-103.10997333-230.10417778-230.10417778-230.10417777zM512 839.54801778c118.83861333 0 215.54062222-96.70200889 215.54062222-215.54062223S630.83861333 408.46677333 512 408.46677333s-215.54062222 96.70200889-215.54062222 215.54062222 96.70200889 215.54062222 215.54062222 215.54062223m0 29.12711111c-135.14979555 0-244.66773333-109.51793778-244.66773333-244.66773334s109.51793778-244.66773333 244.66773333-244.66773333 244.66773333 109.51793778 244.66773333 244.66773333S647.14979555 868.67512889 512 868.67512889z"  horiz-adv-x="1024" />

    
    <glyph glyph-name="star" unicode="&#58906;" d="M956.742 464.115c-5.241 16.201-19.179 28.055-36.035 30.497l-254.931 44.791-114.003 229.438c-7.445 15.248-22.993 24.898-40.026 24.898-17.036 0-32.523-9.649-40.146-24.898l-113.945-229.438-254.871-46.339c-16.857-2.443-30.853-14.296-36.036-30.497-5.301-16.142-0.893-33.951 11.318-45.804l184.408-170.41-48.186-247.663c-2.859-16.737 3.931-33.834 17.81-43.721 13.245-13.245 40.563-6.908 47.054-3.514l232.595 113.646 231.106-113.646c6.491-3.394 32.167-11.373 47.053 3.514 13.76 9.887 20.787 26.983 17.87 43.721l-46.698 247.663 184.467 172.019c12.152 11.793 16.499 29.602 11.197 45.744z"  horiz-adv-x="1024" />

    
    <glyph glyph-name="ai66" unicode="&#59064;" d="M366.036116 172.029284c-38.862099 0-70.634734-31.823799-70.634734-70.637804 0-38.916335 31.773657-70.689992 70.634734-70.689992 38.916335 0 70.689992 31.773657 70.689992 70.689992C436.726108 140.205485 404.95245 172.029284 366.036116 172.029284M154.06847 737.299535l0-70.692039 70.688969 0 127.204124-268.479731-49.525973-84.766592c-3.464915-10.55745-7.034207-24.737404-7.034207-35.348066 0-38.862099 31.773657-70.635757 70.634734-70.635757l423.940408 0 0 70.635757-409.81162 0c-3.572362 0-7.036253 3.571339-7.036253 7.091512l0 3.51915 31.823799 60.029188 261.392312 0c28.202319 0 49.41955 14.180977 60.030212 35.347043l127.150912 229.614561c7.140631 7.142677 7.140631 10.610662 7.140631 17.699104 0 21.217231-14.179954 35.293831-35.346019 35.293831l-522.885931 0-31.828916 70.692039L154.06847 737.299535zM719.334627 172.029284c-38.862099 0-70.635757-31.823799-70.635757-70.637804 0-38.916335 31.774681-70.689992 70.635757-70.689992 38.868239 0 70.641897 31.773657 70.641897 70.689992C789.976524 140.205485 758.202866 172.029284 719.334627 172.029284"  horiz-adv-x="1024" />

    
    <glyph glyph-name="daohang" unicode="&#58923;" d="M898.8 617.6H152.8a32 32 0 0 0 0 64h746a32 32 0 0 0 0-64zM898.8 348.592H152.8a32 32 0 0 0 0 64h746a32 32 0 0 0 0-64zM898.8 79.6H152.8a32 32 0 0 0 0 64h746a32 32 0 0 0 0-64z"  horiz-adv-x="1024" />

    
    </font>
</defs>
</svg>
